<?xml version="1.0" encoding="UTF-8"?><svg id="Layer_1" xmlns="http://www.w3.org/2000/svg" viewBox="0 0 283.46 283.46"><path d="M255.03,71.96c-1.62-.69-4.53-1.61-5.03.97-.82,4.23,19.03,15.57,25.77,20.4v-7.47c-2.44-1.32-5.02-2.42-7.35-3.86-4.11-2.54-10.1-8.66-13.39-10.05Z"/><path d="M129.86,222.34h.1c-.31-1.36-.79-2.48-1.52-3.2l1.41,3.2Z"/><path d="M240.31,44.79c-.68-1.49-16.8-10.82-19.77-12.92-3.03-2.15-4.65-5.86-9-4.15,3.57-5.19-8.88-10.9-12.8-12.41-17.12-6.57-38.52-8.5-55.92-15.13-6.86-.98-4.97,2.06-6.34,6.11-6.06,17.95-13.7,38.86-13.04,58.04.12,3.39,1.02,7.44,1.15,10.96,5.92,8.54,15.75,9.63,24.44,13.17,4.84,1.97,8.71,5.23,13.25,7.34,5.1,2.37,10.77,3.27,15.87,5.44,5.33,2.27,17.35,10.17,22.42,10.32,5.36.16,5.21-3.32,6.89-6.62,1.52-2.99,3.8-2.74,1.26-6.91,1.19-.31.29,1.26,1.17,1.45.74.16,4.31-.71,5.2-1.08l24.09-14.3c-2.18-6.36-1.64-13.99-.62-20.58-1.23-4.13,3.12-15.79,1.77-18.76ZM139.1,17.45c1.34-1.77,2.86-10.33,5.17-10.2,1.24.07,3.57,1.57,5.15,1.98,14.13,3.59,29.68,6.78,43.47,11.22,4.3,1.38,6.86,3.13,10.7,5.27l.11,2.73c-2.68-1.82-6.61,1.13-9.26.41-1.25-.34-5.76-4.05-7.75-5.06-8-4.03-28.72-11.29-37.4-12.32-1.06-.13-5.44-.33-5.86.03-.25.22-1.99,4.45-3.05,5.82-.5.65-1.44,2.24-1.3.12ZM130.56,62.53c-.25.48-1.21-.42-.7-1.41.25-.48,1.21.42.7,1.41ZM131.98,73.55c-.95-.93-.73-2.04-.7-3.2l12.78,9.23c-2.84-.79-10.15-4.13-12.08-6.02ZM187.88,93.7c-12.38-4.35-22.88-9.47-33.81-16.67-2.42-1.59-13.54-8.86-14.67-10.19-1.79-2.1-2.37-6.55-2.44-9.28h4.27c1.46-3.7-2.22-5.18-2.71-6.89-2.71-9.4,3.52-19.61,6.61-27.91.31-.83,1.12-2.82,1.76-3.21,3.17-1.92,19.21,3.62,23.29,5.13,3.43,1.26,14.35,5.48,16.5,7.65,1.15,1.16.47,3.18,1.03,4.65,5.41,14.17,9.79,24.67,7.3,40.64-.41,2.62-4.31,16.33-7.14,16.07ZM199.72,103.79c-.42.07-5.72-1.98-5.94-2.2-.68-.69-.15-1.49,1.05-1.42,2.3.15,4.38,1.6,6.75,0,.39.45-1.54,3.56-1.87,3.61ZM203.02,82.07c-.18,2.2.4,11.34-.79,12.34-.58.49-4.67.2-4.9-1-.08-.44,2.9-6.52,3.35-8,3.58-11.75,2.78-23.16-.15-34.96-1.34-5.41-3.8-10.3-5.33-15.62,1.63.62,6.9-1.39,7.76-.66.67.57,2.92,15.44,2.92,17.31-.02,9.84-2.06,20.72-2.86,30.59ZM231.43,80.65l-.7,1.43c-4.71,2.54-9.12,5.59-13.74,8.28-1.66.97-4.21,1.57-5.42,2.39-1.28.88-.96,2.31-2.15,2.45l3.57-41.52c.88-7.69-2.73-14.79-2.15-22.4,1.28.32,1.39,2.27,2.37,3.31,2.99,3.15,19.18,12.17,19.55,13.53l-1.32,32.52Z"/><path d="M145.48,133.56c-2.62,2.6,6.14,3.61,7.08,3.92,3.89,1.25,7.6,3.08,11.38,4.6,1.92-6.12-17.05-9.91-18.46-8.52Z"/><path d="M15.49,162.68l.71-5.68c-1.71.32-2.23,5.03-.71,5.68Z"/><rect x="11.95" y="131.43" width=".7" height="2.83"/><path d="M83.33,109.41v.71c.46-.24.46-.47,0-.71Z"/><path d="M176.27,38.49c-3.02-2.09-7.32-1.47-10.9-2.6-1.53-.48-10.99-6.24-6.09-.3,3.51,4.25,10.92,4.13,14.81,5.79.82.35,5.86,6.55,7.61,4.82.98-.97-4.39-6.98-5.43-7.7Z"/><path d="M163.94,56.5c3.63,1.62,9.79,6.82,12.79,1.78-6.93-2.41-13.15-6.97-20.59-7.82.1,5.39,4.32,4.48,7.8,6.04Z"/><path d="M276.17,127.15l-.34-1.4s-.04.02-.05.03v1.63l.4-.26Z"/><path d="M226.23,157.13c3.14-2.15,6.68-3.67,9.83-5.8,13.04-8.82,25.55-18.5,39.71-25.55v-8.05c-6.23,4.17-13.07,7.3-19.43,11.27-16.13,10.08-31.74,21.25-46.6,32.95-1.41,1.11-6.56,4.94-7.86,5-2.38.11-13.3-8.13-16.4-9.83-11.42-6.28-27.87-14.01-40.16-18.08-4.32-1.43-8.84-2.62-13.34-3.36l7.68-4.03c1.52-.66,8.21-3.59,9.14-3.64,1.07-.06,2.65,1.68,3.99,2.14,2.83.98,12.17,2.77,13.67-.14,1.58-3.06-2.97-4.12-5.36-3.56-.52-2.55,2.77-.6,3.93-2.82.55-1.06.52-1.68-.37-2.51-3.26-3.03-13.02-.57-13.5-1.06-1.57-1.58,1.81-3.54,2.11-4.09,1.65-3,1.65-8.25-3.18-7.29-3.02.6-4.83,11.4-5.79,14.29l-24.88,11.21c-.93.59-1.65-1.54-1.65-1.68v-11.72c2.26.61,10.59,6.11,12.07,4.26,1.91-2.38-10.64-8.61-11.06-9.21-.88-1.23,1.23-5.7,1.16-7.52-.07-1.8-1.65-2.72-1.54-4.93.16-3.18,3.97-4.71,5.07-7.45,2.27-1.6.07,4.32,3.16,4.27,2.86-.04,6.99-5.64,3.88-8.85-3.96-4.08-10-6.32-15.57-4.67,5.26-6.68,5.05-3.36,10-.41,13.76,8.22,29.94,13.2,44.13,20.51,5.31,2.73,10.32,5.94,15.32,9.17v4.33c-5.11,6.58-11.98,11.71-17.51,18.01-2.05,2.82.67,5.73,3.65,3.79,3.83-5.12,9.52-9.21,13.77-13.72,4.6-4.89,7.8-8.43,3.07-15.01-9.76-5.51-19.37-11.17-29.56-15.89-9.87-4.58-24.13-8.71-32.88-14.71-3.22-2.2-4.23-6.99-8.53-4.17-.89.58-9.13,7.88-9.26,8.5-.82,3.69,6.83.04,7.09.34-.02,1.38-.1,2.82.52,4.11.58,1.21,4.59,2.44.91,4.1-.42.19-6.2-3.42-8.34-3.78-2.64-.44-5.36-.05-8-.17l2.87-36.21c3.67,2.19,13.73-2.28,14.08-6.17.12-1.39-1.72-1.96-2.03-2.73-.19-.47,4.68-4.85-1.42-4.96,2.39-3.08,5.58-3.16,4.97-7.46-3.24-.45-5.6.33-8.52,1.41-.39-1.55,2.49-2.74,3.51-3.23,1.27-.61,3.88-.96,4.16-1.2.22-.18.08-1.13.41-1.65.21-.33,1.05-.37,1.14-.77.61-2.73-1.3-2.43-1.88-3.31-.6-.9-.5-2.37-1.66-3.01-1.96-1.08-8.06,2.96-10.37,3.24-2.89.35-8.22-1.2-11.75-.99-1.57.09-5.5.66-6.56,1.66-.8.75-.31,1.99-.47,2.15-.49.48-4.08-.74-5.31-.74-6.08,0-20.07,11.03-17.96,18.03,1.17,3.88,7.36,4.34,9.59,5.69.42.25.63,1.4,1.35,1.81,3.13,1.8,6,2.1,9.51,1.54-1.56,5.72-2.53,11.65-3.43,17.51-.95,6.17-1.3,17.13-3.13,22.44-.75,2.17-7.51,5.42-6.94,9.76L7.29,60.91v5.85c4.79,3.18,8.67,7.54,13.23,10.98,5.16,3.89,10.98,7.02,16.23,10.76,8.13,5.8,18.21,15.12,27.23,18.94,1.3.55,3.72.42,3.98.63.63.52.72,4.8-.26,5.59-6.07-6.53-14.28-10.4-21.47-15.46-12.26-8.63-23.63-17.56-36.89-24.92-.51-.28-1.37-.49-2.05-.65v6.39c1.16.4,2.47,1.17,2.52,1.96h-2.52v55.19c.27-3.96.6-7.91.74-11.87,1.35,0-1.19,24.82-.36,26.99-.15.02-.28.01-.38-.02v42.77c2.81-1.53,4.34-6.03,6.83-8.27-.55-7.32.59-14.46,1.37-21.69-2.01.96-1.29,4.57-1.42,6.39-1.18.19-.79-1.75-.73-2.5.65-8.47,1.88-17.05,2.17-25.51.51-14.53-.3-29.2,0-43.71l1.41,6.39-.7-20.59c.81-1.11,16.99,12,18.52,13.08,8.14,5.76,17.41,12.27,25.85,17.48,2.15,1.33,4.23,2.27,6.67,2.92-.53,8.14,1.13,16.38.8,24.4-.11,2.8-1.76,6.14-.7,8.88-1.99,1.42-12.28-6.95-13.96-8.76-2.93-3.13-4.59-10.23-10.39-6.89-2.72,1.57-2.24,3.7-2.96,5.73-7.34,20.65-7.49,40.47-2.34,61.95,2.21,9.24,13.24,16.93,21.65,20.25,2.1.83,12.36,3.39,12.81,3.89,1.87,2.11.7,16.26.16,19.72-.49.51-10.26-4.32-12.82-2.53-2.62,1.83,1.33,7.43,3.12,8.68,1.04.73,3.19.3,3.32,1.66l-29.8,11.75c-3.51,4.35.59,6.58,5.13,5.84,4.76-.77,30.56-13.1,31.78-11.91-.65,4.34,6.64,21.85,10.38,22.55.22.04,4.37-.05,4.57-.16,2.38-1.31-1.2-9.34-2.05-11.5-.99-2.54-5.49-9.19-3.74-11.31.7-.85,14.3-3.73,16.16-3.79,3.19-.1,10.76,3.93,10.26-1.83-.09-1.08-3.98-3.6-5.23-4.06-7.86-2.87-15.38.38-23.25.87.71-7.56.79-15.13,0-22.72,4.68.54,7.27,2.85,11.85.84,6.63-2.91,18.61-17.7,24-23.58,2.5-2.73,10.6-8.82,9.64-12.38-.07-.25-5.96-2.46-2.52-3.23,2.78-.62,4.52,6.55,4.99,8.5,1.79,7.44,1.83,15.83,2.45,23.46h-.59c1.35,5.83-.38,16.06.9,17.81.69.94,2.53.33,3.11.8.48.39.02,2.64,2.05,3.27,7.75,2.42,24.33-6.97,28.07-14.28,3.99-7.82.36-10.93-.82-17.94-1.07-6.39-.5-14.59-.8-21.16l-9.55-33.12c8.46.89,15.05,6.82,22.6,10.07,5.95,2.56,13.74,3.76,19.36,6.21,1.12.49,2.06,1.12,2.76,2.14l-2.47,42.97c.05,12.81,0,25.62.05,38.42.02,5.11-2.11,9.37,6.26,6.62.27-1.96-1.24-3.56-1.36-5.2-1.07-14.17.25-29.26.74-43.37.4-11.73.91-23.43,1.43-35.15l5.68.7-.91,30.7c-1.58,18.23-4.03,36.48-4.63,54.75.2,2.53,5.63,2.06,6.25,1.2.18-.25-.67-2.3-.71-3.18-1.08-23,4.26-50.78,5-74.55.14-4.44.58-9.18-1.45-13.16l63.38-40.85v-.1h.16l.38-.24c0,.08-.01.16-.02.24h.33v-8.53l-58.55,38.11c-1.21-1.27,7.95-7.67,9-8.39ZM159.33,125.04c.46.24.46.47,0,.71v-.71ZM107.12,49.05c.86.39-2.44,1.8-2.83,1.41v-1.41s2.83,0,2.83,0ZM71.6,44.78c-2.58-1.08-1.3-4.76.71-5.68l-.71,5.68ZM80.48,36.24c-.42-.82,1.31-4.13,1.78-3.54.48.62-1.03,2.95-1.78,3.54ZM8.4,171.91l2.84-68.18,1.41,11.01.71,27.33-1.41-7.1c-.64,10.7-.91,21.58-2.22,32.23-.13,1.04-.37,4.3-1.33,4.7ZM11.94,160.54h-.7v-4.25h.7v4.25ZM13.36,174.75c-.25.48-1.21-.42-.7-1.41.25-.48,1.21.42.7,1.41ZM12.65,154.86c-1.28-.46-.81-4.24-.71-5.33.08-.84.21-3.18,1.42-3.19l-.71,8.52ZM117.86,142.55c1.03-3.3,4.15.83,5.42,1.48,2.88,1.48,6.96,2.84,10.12,3.74l-10.62,3.94c-1.95.36-3.82,1.08-4.29-1.47-.18-.96-.79-7.19-.64-7.69ZM101.22,32.92c1.56,1.89-2.44,13.38-4,14.91-1.92,1.88-5.97,1.45-8.02-.2-7.67-6.17,4.77-23.51,12.02-14.71ZM90.08,55.44h3.55s-2.09,35.07-2.09,35.07l-6.43,1.86,4.97-36.93ZM81.01,109.93c2.59-5.68-1.17-10.65,9.06-11.17.88,3.69-3.31,13.23,2.48,13.56,5.97.34,4.57-10.24,5.33-14.28.43-.46,11.46-.11,12.01,2.62.39,1.57-4.23,5.87-5.6,6.98-4.33,3.48-11.74,7.01-17.38,5.99-.95-.17-3.26-2.08-3.93-1.39-.37.38,1.34,3.68-3.39,1.59-2.28-1.01.7-2.32,1.42-3.91ZM85.1,222.34c-1.13.96-18.23-2.8-20.79-3.71-5.57-1.98-16.36-9.46-18.1-15.28-3.78-12.61-5.97-33.59-3.4-46.39.34-1.7,3.15-11.31,4.3-11.31,9.73,11.6,24.67,14.42,38.66,17.8-.21,3.68-1.83,6.74-2.56,10.47-3.08,15.89-.88,32.67,1.9,48.42ZM92.21,219.5c-.24-.26-.45-2.66,1.05-2.12,2.19.79-.36,2.86-1.05,2.12ZM157.55,221.29c.3,8.69-4.42,12.74-12.09,15.6-1.25.47-6.09,2.2-6.76,1.11-1.07-1.74-.07-21.76-.34-25.94-.35-5.43-2.68-23.76-6.35-27.03-3.94-3.52-11.67-2.53-15.62.78-5.84,4.9-9.27,11.6-14.23,17.02-3.15,3.45-6.94,6.1-10.67,8.86-1.02-9.32-2.3-19.37-1.42-28.75.57-6.06,5.35-18.21,4.83-22.58-.25-2.12-2.22-2.59-4.09-3.03-2.29-.54-15.63-2.47-16.37-3.17l1.32-2.45.1-31.64c12.8,3.66,25.31.48,35.5-7.82.09,2.8-1.19,5.43-1.4,8.18-.37,4.76,1.55,14.75-.4,18.06-.83,1.42-6.72,4.03-8.58,4.92-1.72.82-5.9.94-5.16,3.85,1.43,5.59,10.68.91,13.75-.92,1.84,1.39.77,3.83,1.24,5.88,3.24,14.08,22.89-.77,29.66,2.31,2.49,1.13,5.47,7.97,6.44,10.6,6.45,17.65,9.97,37.42,10.62,56.16ZM186.12,165.73c-3.04-.85-7.21-2.19-10.09-3.41-5.55-2.37-11.88-7.06-17.46-8.82-3.08-.97-7.32-.77-10.07-2.01-5.06-2.29-10.01-9.54-17.41-9.58l-6.92-3.36c1.17.48,4.07-1.57,4.24-1.43.07.06.1,1.18.69,1.78,4.02,4.05,20.43,7.9,27.01,10.67,10.72,4.5,21.49,10.86,31.97,15.98.16,1.37-1.3.39-1.97.2Z"/></svg>