<?xml version="1.0" encoding="UTF-8"?><svg id="Layer_1" xmlns="http://www.w3.org/2000/svg" viewBox="0 0 283.46 283.46"><path d="M125.84,2.56c-.13.22-3.37,2.34-4.01,3.01-1.5,1.58-2.98,4.88-4.29,6.12-1,.94-3.51,2.03-4.73,2.97-1.47,1.14-7.96,6.03-8.19,7.22-1.1,5.74,8.12,4.05,11.54,4.29,5.24.37,10.59,1.2,15.84,1.37,9.04.3,17.66-.94,26.69.04,3.17.34,6.34,2.03,9.52.9,1.52-6.4,4.69-12.2,7.29-18.17,1.01-2.32,1.29-7.06,4.53-7.28,2.61-.17,1.27,1.54,2.93,1.87l-5.65,13.11c-.54,3.7-1.31,8.04-3.19,11.3-.34.58-1.38,1.13-1.49,1.68-.12.6.93,1.91,1.16,2.78.91,3.41,1.38,7.17.98,10.7-1.33,11.86.28,20.53.32,32.16.01,4.1-.71,8.37-.72,12.5l14.58-32.74c.66-2.11,1.54-6.84,4.23-7.1,4.71-.44,2.2,4.63,1.2,7.09-1.41,3.48-3.64,7.19-5.15,10.7-2.85,6.58-5.38,13.31-8.52,19.78l11.09-5.01c2.35.08,2.79,1.45,4.06,2.79,1.02,1.08,2.06.73,2.09,2.92.05,3.4-5.4,3.47-5.9,5.89-1.17,5.69.18,11.49,0,17.22l-.51,8.52c.23,1.12,13.23,2.83,13.53,6.48.11,1.3-2.34,5.28-1.75,7.37l-2.24.03c-.42,19.03-3.98,37.74-7.21,56.44,1.06,4.61,3.25,7.25,3.01,12.16-.43,8.51-5.33,17.37-4.41,25.38.5,4.35,6.19,10.1,5.44,14.03-.59,3.12-8.42-.15-10.68,1.56l-.68,13.79c.12.43,5.77,1.19,6.6,1.18,3.08-.03,5.99-2.79,9.43-.48.63.42,1.93,6.6,1.25,7.54-1.06,1.46-9.11,4.82-11.3,5.91-3.73,1.86-9.56,6.66-14.08,4-.26-.15-3.61-3.93-4.09-4.52-8.43-10.42-17.78-20.63-25.3-31.77-1.24-1.84-5.94-8.42-5.45-10.22.11-.4,1.03-1.09.84-1.24-1.03.16-5.64.24-5.78,1.11.96,3.45-2,7.85-3.73,10.89-2.79,4.92-6.56,9.73-9.3,14.7-3.26,5.93-4.73,12.74-8.19,18.08-1.54,2.39-3.73,4.56-5.36,6.87-.74,1.05-1.88,4.43-3.12,4.41-2.9-2.07-4.11-.63-6.89-.37-1.23.11-3.32.16-4.5-.02-2.51-.38-19.2-8.86-21.96-10.65-4.23-2.76.54-4.54,2.08-7.36l10.57-.53-3.63-70.65c-1.92.22-4.71.8-5.82,2.55l-4.95,18.18c-.36,2.39,1.74,4.04,2.5,6.35,3.33,10.08-5.3,4.79-10.64,3.84-3.71-.66-7.23.38-9.44-3.96.32-2.34,3.83-4.98,4.26-6.89.28-1.27.05-2.66.38-4.14.62-2.78,2.34-5.48,3.13-8.2,1.83-6.29,2.66-18,6.99-22.9,1.57-1.77,3.98-.87,4.48-4.57,1.29-9.41,1.77-19.12,3.29-28.43.57-3.47,1.53-6.82,2.2-10.25-1.83-.17-9.66-2.21-9.02-4.67.06-.21,2.37-3.38,2.54-3.51,1.42-1.12,9.55-3.83,10.06-4.56.34-9.82,3.11-19.51,4.45-29.26-.02-1.19-2.31-2.06-2.48-3.57-.08-.73,1.04-4.05,1.49-4.67,1.98-2.74,6.99,1.26,9.25,2.24-.53-6.84.8-13.86.48-20.63-.45-9.31-1.88-18.65-1.4-28.08.18-3.42,1.26-6.8,1.02-10.3.48-1.08,1.43-1.7,2.61-1.7-.24-1.84-.82-3.56-.24-5.44s3.24-2.72,3.68-3.6c.31-.63-.31-1.38-.26-2.03.17-2.02,3.3-1.94,4.64-2.62,6.23-3.15,5.9-5.2,9.86-9.62.27-.31,3.41-3.07,3.63-3.17,2.01-.93,5.27,1.48,4.46,2.88ZM168.88,33.47c-5.43.22-10.6-1.64-16-1.89-5.67-.26-11.53.74-17.23.67-6.63-.08-13.75-1.05-20.39-1.55-4.25-.32-8.52.69-12.45-1.82.2,3.51-1.41,7.19-1.41,10.64,0,4.97,1.06,10.81,1.4,15.86.14,2.16-.15,4.36.06,6.51.47.53,7.98,1.77,9.24,1.86,5.76.38,12.06-1.72,17.43.46l1.81-10.41c-1.85,1.49-1.78,4.18-3.65,5.63-4.54,3.51-10.75,3.05-14.65-1.15-4.88-5.27-3.24-15.31,3.49-18.15,5.23-2.21,8.83-.09,13.44,2.35-2.36-7.45-8.79-7.93-15.25-5.06-1.52.67-5.14,3.57-6.43,2.74-.96-1.58.09-2.36,1.33-3.31,10.45-7.98,24.01-6.7,25.74,8.17,1.37,11.76-2.63,22.44-3.67,33.82-.09.98-1.04,2-.84,3.26.32,1.97,4.36,1.58,5.92,1.59-.43-4.61.74-9.25.92-13.8.35-8.78-.64-18.52.47-27.15.36-2.76,3.44-7.34,5.99-8.51,3.43-1.58,17.27-1.23,17.99,3.51.65,4.25-3.43.86-4.53.42-1.9-.75-9.09-1.04-11.1-.66-2.63.5-3.91,5.4-3.86,7.69,3.03-3.37,5-5.73,10.06-5.34,4.3.33,9.98,5.21,10.11,9.64.02.52-2.01,7.01-2.3,7.46-1.35,2.11-9.28,4.56-11.71,4.5s-4.74-1.38-6.61-2.67l.56,5.78,26.62,1.02c.11-5.33-1.18-11.28-.92-16.55.25-5.17,2.71-10.39.41-15.55ZM120.33,43.05c-5.57.03-7.25,10.29-2.56,13.21,7.07,4.41,12.5-8.91,7.86-11.48-.3-.17-5.02-1.74-5.3-1.73ZM149.23,44.89c-3.08,3.04-3.29,6.76-2.87,10.88.61,1.88,8.28-.39,9.43-1.32,1.68-1.37,2.05-4.93,1.02-6.86-1.76-3.31-4.53-2.29-7.57-2.7ZM128.62,68.29c-8.51-.25-16.66,1.57-24.91-1.36.08,7.59-1.1,15.74-.48,23.34.07.85.23,2.64.93,3.15,2.38,1.71,15.56,1.29,19.24,1.6,9.15.76,19.45,3.62,29.03,4.05,3.01.14,8.78.02,11.73-.45.74-.12,3.14-1.59,3.45-2.1.45-.76,1.67-7.27,1.78-8.53.34-3.91.77-11.6.48-15.41-.06-.83-.12-1.66-.55-2.4-3.79-.58-7.61-.45-11.49-.55-2.75-.07-5.68-.48-8.14-.47-2.34,0-4.97.94-7.48.49-.51,5.6-.04,11.5-1.32,16.91-4.09,2.23-13.28,2.57-14.43-3.2-.17-.86-.53-4.88-.46-5.68.13-1.49,3.22-8.78,2.62-9.39ZM97.7,91.96l-5.32-2.83c-.26,1.21.11.99.56,1.49,1.42,1.54,3.58,2.11,5.1,3.49.52-.21-.22-2.01-.35-2.14ZM180.26,91.39l-2.26,1.81c.72-.65,2.57-.47,2.26-1.81ZM187.96,117.2l.45-23.1c-.47-.63-9.35,4.74-10.31,4.91-1.53.28-1.91-1.15-3.29-.67-2.12,1.04-5.88,4.18-7.82,4.91-1.06.4-1.93.44-3.04.36l.5,3.12c8.47,2.04,15.66,6.96,23.51,10.46ZM115.49,99.54h-7.47c-.23,0-.94-.72-1.58-.45-.15.64.26,1.13.38,1.66.33,1.43-1.3,0-1.73-.09-5.08-1.1-8.25-2.54-12.7-5.19l-3.4,24.46,24.72-11.55,1.78-8.83ZM124.32,99.99c-2.07-.23-4.46.17-6.57,0,2.93,4.21,8.9-.14,12.9,2.27l-.05-.91c-2.02.05-4.46-1.16-6.28-1.37ZM136.32,102.71h-1.35s0,.9,0,.9l1.35-.46v-.44ZM143.12,105.43l-1.36.22.68.67.68-.89ZM160.33,105.43c-.15-.16-3.93.54-4.07,1.35h4.08s0-1.35,0-1.35ZM143.24,109.36c-.26-.21-.47-1.19-.8-1.21l-2.04.9,4.75,1.36c.58-.71-1.3-.56-1.91-1.05ZM124.09,109.5c-1.06.34-3.26.18-3.16,1.81l3.16-1.81ZM199.29,125.81c-9.55-1.3-17.16-7.43-25.64-11.28-6.62-3-10.38-3.93-17.6-4.14-3.39-.1-6.82.11-10.21.02l5.42,2.05c11.92,1.48,22.83,6.52,34.09,10.3,4.45,1.5,8.93,3.05,13.27,4.84l.67-1.79ZM87.4,177.89v10.87c3.5-.85,7.06-.17,10.62-.48,1.57-.14,11.88-2.68,12.02-.66-1.35,3.5-4.36,2.31-6.93,2.96-1.25.31-3.6,1.23-5.52,1.35-1.59.1-9.46-.5-9.76.75.5,4.04.26,8.1.47,12.15.78,14.64,1.26,29.33,2.24,43.95.34,5.04.71,10.13,1.4,15.13l6.06.49c.93-1.54,1.55-3.28,2.45-4.84,6.35-11.01,11.81-19.87,19.03-30.34.9-1.31.94-3.73,2.79-3.33l-.4-3.56,1.76-.52c-.32-1.17-1.99-.88-2.61-1.46-.16-.16-1.83-3.34-2.16-3.96-3.15-6.02-8.98-22.32-8.37-28.77.06-.68.21-1.35.51-1.97,5.03-1,3.92,4.24,4.61,7.72,1.09,5.49,2.97,11.41,5.21,16.53.84,1.91,5.95,10.11,4.57,11.44l-1.32.47c5.91,2.38,12.92.96,19.11-.14,3.17-.56,6.29-1.33,9.38-2.17l2.9-15.9,7.33-20.75c.71-1.27,5.1.58,5.56,1.03.24.23.3,1.22,1,1.94,2.08,2.19,5.07,3.88,7.28,5.86,7.62,6.84,10.35,12.66,8.21,23.13-1.19,5.83-5.22,14.31-5.5,19.94-.02.47-.16,1.09.08,1.48,5.03,2.22,3.28.69,3.53-2.39.67-8.23,2.55-15.27,3.95-23.27.74-4.23,3-14.29,2.83-17.94-.09-1.99-4.4-14.14-5.4-16.8-.37-.98-1.51-4.25-2.05-4.74-2.15-1.97-13.31.95-16.78.47-3.14-.44-2.34-3.03.51-3.61,3.66-.75,14.05-1.7,17.66-1.42.92.07,1.85,1.22,2.25.49.55-6.87,1.95-14.18,2.03-21.03.03-2.3-.51-4.37-.49-6.37.03-3.69,1.04-7.41.28-11.12-8.39-2.05-16.25-6.76-24.36-9.16-7.39-2.19-15.4-3.08-22.79-5.75-1.33-.48-3.61-1.23-3.86-2.73-1.9,1.37-3.58.95-5.72,1.72-13.04,4.7-26.4,13.48-39.56,18.41-2.24.84-4.62,1.13-6.79,2.05,1.3,6.81.99,13.75,1.37,20.6.11,1.96.83,4.34.92,6.33.21,4.74-.19,9.55-.02,14.29.97.96,9.42-2.01,11.14-2.23,2.63-.33,5.54-.03,8.17-.19,2.18-.14,14.08-1.76,14.69.43.36,1.31-1.35,2.65-2.52,2.88-5.04.98-13.05-.14-18.56.47-4.13.46-8.29,2.02-12.46,2.26ZM120.01,111.77l-7.1,2.63-4.22,2.34,11.32-4.97ZM107.78,117.2h-.9v.44h.9v-.44ZM104.61,118.56l-26.72,11.31c5.81.14,10.93-4.35,16.47-5.95l10.25-5.37ZM191.58,182.87c2.3-17.01,6.17-33.94,5.69-51.19l-5.45-1.8c-1.12,6.97-.35,14.05-.69,21.06-.28,5.77-1.39,11.52-1.83,17.24-.07.94.25,1.75.38,2.65l-1.73,1.45,3.64,10.6ZM79.24,175.17l4.1-.2c.42-.3.57-1.44.62-2,.27-2.9-.04-8.5-.18-11.63-.21-4.71-1.42-9.46-.93-14.25l-1.35,7.02-2.27,21.05ZM84.15,189.58l.08-11.24-5.46.65-3.59,13.84c.75.04.38-.86,1.21-1.27,1.27-.63,7.3-1.45,7.77-1.97ZM65.65,213.2c4.82-10.39,5.36-22.13,8.61-33.05-4.18,5.8-4.65,14.08-6.47,20.93-1.1,4.13-2.42,5.4-2.28,9.68.07,2.23-.81,2.02-1.35,3.02-.47.88-3.06,5.24-3.06,5.56-.03,2.2,5.16,1.42,6.54,1.62,1.78.26,3.48,1.04,5.25,1.31.26-.26-1.55-3.63-1.88-4.23-1.1-1.95-2.31-1.56-1.29-4.83l-1.11.95-2.96-.96ZM186.15,260.31v7.25c-1.33.03-2.6,1.06-3.67-.19-.9-1.12.79-5.72-.19-7.96-.72-1.65-2.3.29-3.85-.18-3.83-1.17-9.34-13.96-11.76-17.72-1.45-2.25-11.34-14.44-11.35-15.4-.02-1.97,2.97-1.72,4.39-.51,3.04,2.61,10.03,13.01,12.4,16.81,3.16,5.07,4.86,11.39,10.4,14.28.46-.59.91-14.08.4-14.88-1.78-.89-8.29-1.93-8.56-3.94-.06-.47,1.74-8.06,2.04-9.27,1.88-7.71,7.15-18.52,3.59-26.21-1.9-4.11-9.27-10.55-13.09-13.19-.38-.27-.45-.63-1.13-.44-1.56,5.13-4.35,10.7-5.69,15.83-.9,3.44-1,7.48-1.77,10.91-.34,1.54-1.64,6.56-2.31,7.66-1.18,1.93-10.19,2.74-10.18,3.41.33.46,1.04.17,1.6.67.64.58,3.79,7.14,4.84,8.75,7.91,12.16,18.96,22.71,28.2,33.85.53.48,1.15.48,1.82.46,1.32-.04,16.78-7.32,17.25-8.15l-.24-2.29c-4.39,1.76-8.61.46-13.13.46ZM191.13,210.49c.52-3.47,1.72-6.84,1.36-10.41l-1.75,7.98.39,2.43ZM190.68,212.3v-1.35h-.44v1.35h.44ZM192.5,238.12c-1.26-2.61-3.24-5.21-3.96-8.07-.53-2.1.2-3.91-.35-5.97-2.09,2.85-.32,8.97-1.19,11.49-.39,1.13-2.33.37-2.66,1.64l8.15.91ZM134.96,227.71c-3.75.97-6.83.1-10.42-.9l.1,3.04c-7.67,9.75-13.29,20.55-19.58,31.15-.76,1.29-3.23,6.94-3.76,7.34-1.62,1.23-6.29-1.02-8.47-.31l.25,2.72-3.37.85-1.23-3.6c-1.34.55-8.8.11-8.78,1.62l15.71,8.74c1.64.38,10.77-.49,12.09-1.31,1.95-1.22,5.58-8.26,7.47-10.27,1.7-4.13,3.18-8.36,5.25-12.34,1.47-2.82,16.35-25.27,14.73-26.71Z"/><path d="M191.9,23.58c.25.29.5.72.53,1.09.13,1.59-4.6,5.66-5.81,7.16-1.12,1.4-4.11,5.33-4.44,6.88-.85,4.04,1.8,8.27,1.71,12.35l13.68-18.44c1.59-.19,2.7-.02,3.47,1.56l-.02,1.14c-3.28,4.41-7,8.56-10.32,12.91-2,2.62-4.77,7.92-6.81,9.85-.33.31-4.68,3.12-4.97,3.21-1.34.42-2.26-.04-3.24-.93l-.31-.82c.22-2.07,1.62-4.24,2.04-6.11.4-1.78.72-7.13.57-8.93-.19-2.31-1.87-6.23-.46-8.51.31-.5,1.23-.36,1.84-.98,1.63-1.67,3.31-4.8,4.98-6.8.83-1,4.84-5.69,5.64-5.68.55.18,1.56.63,1.91,1.04Z"/><path d="M152.91,154.05c12.92,15.02-1.68,35.06-20.52,27.09-9.06-3.83-17.06-15.17-10.11-24.31,2.21-2.9,5.36-4.4,7.14-6.23.44-.45.25-1.32.87-1.74,6.83-4.58,17.63-.62,22.63,5.19ZM148.88,156.73c-3.33-3.08-8.21-4.89-12.76-4.18-.35.05-4.14,1.33-4.74,1.56-3.03,1.12-7.43,7.5-7.26,10.81.92,17.94,33.21,16.78,28.2-2.35-.22-.85-2.81-5.26-3.44-5.84Z"/><rect x="180.72" y="235.41" width=".9" height=".44"/><path d="M121.72,48.43c6.39-1.06,1.57,9.2-3.87,3.33.49-1.41,2.42-3.09,3.87-3.33Z"/><path d="M149.33,48.45c5.47-1.63,6.2,5.37,1.31,4.88-3.52-.35-4.44-3.95-1.31-4.88Z"/></svg>