<?xml version="1.0" encoding="UTF-8"?><svg id="Layer_1" xmlns="http://www.w3.org/2000/svg" viewBox="0 0 283.46 283.46"><path d="M103.46,90.4c.89-.11,1.46,0,2.23.46,2.43,1.47,3.31,11.86,3.63,14.91,1.28,12.02.74,24.08,1.47,36.09.33,5.39,1.96,12.31,1.99,17.57.02,2.98-.82,6.93-1.02,9.99l33.96-.46c5.71-.31,11.4-2.06,17.08-2.45,5.01-.34,10.14.4,15.13-.5,2.05-.37,1.64-3.89,2.69-5.36l-15.89,2.45c-1.52,0-7.39-1.17-8.39-2.1-.46-.43-.33-1.37-.73-1.71-.6-.51-2.34-.15-2.83-.94-.3-.48-1.01-6.24-1.01-7.22,0-2.21.78-5.49,1.01-7.81.26-2.61-.78-5.25,1.16-7.38,2.22-2.44,6.23-2.72,9.37-2.63,2.19.06,13.58,1.45,14.85,2.24,1.36.84,1.49,2.61,2.95,2.66-.28-2.27.8-4.43.97-6.59.66-8.54,1-18.77.49-27.3-.12-1.96-.86-11.01-1.54-12.12-.36-.59-.41-.68-1.14-.82-5.71-1.07-13.32,1.13-19.06,1.46-3.32.19-6.25-.46-9.25-.5-15.01-.2-29.88-1.01-44.88-.93l-.6-3.45c.58-.77,6.46-.54,7.87-.49,14.52.46,32.08,2.12,46.3,1.32,5.45-.31,10.66-1.62,16.67-1.51,3.16.06,7.33-.55,8.03,3.41.11,8.57,1.58,17.27,1.53,25.83-.01,2.2-.87,4.67-1.01,6.83-.62,9.89-1.7,20.98-1.86,30.73-.03,1.7.77,4.28.67,6.08-.09,1.58-1.29,8.59-2.24,9.52-2.22,2.16-14.53.97-18.3,1.23-6.15.43-12.32,2.13-18.54,2.45-10.87.56-22.32.04-33.25.49-7.53-.68-3.68-10.82-3.62-15.85.07-6.53-1.58-13.86-1.99-20.49.57-15.79-.84-31.48-2.91-47.09ZM177.08,139.78c-.47-.45-3.22-.89-4.1-1.03-2.27-.36-7.17-1.02-9.27-.98-.78.01-6.23.92-6.56,1.15-1.15.8.02,2.72-.03,3.87-.1,2.46-1.81,11.97-.72,13.5,6.83,3.24,15.57,2.21,22.17-1.08.52-.58-.82-14.76-1.5-15.43Z"/><path d="M79.88,292.23c-.68.69-3.91,2.49-3.77.37-1.07-10.54-.9-21.13-1.47-31.7-.09-1.7-.86-3.68-.96-5.38-1.01-17.73,1.08-35.17.92-52.68-.13-14.45-.08-28.96.07-43.39.22-21.5-3.99-42.38-3.45-63.95.24-9.69,1.6-19.42.96-29.18l4.45-.57.44.95c-.38,2.79-.79,6.05-.95,8.83-.89,16.15-1.37,32.14,0,48.28.54,6.41,2.09,13.2,2.46,19.49.69,11.63-.57,24.3-.53,36.15.03,8.7.55,17.54.49,26.34-.11,17.9-1.85,33.25-.96,51.67.45,9.19.48,19.07,1.47,28.29.19,1.74,1.73,5.55.84,6.47Z"/><path d="M182.45,211.01c4.03,9.53.71,19.13.39,28.91-.18,5.44-.2,11.13-.3,16.57-.19,10.45.28,20.93-.09,31.38-2.35,1.94-1.9.15-4.3-.17l.4-23.27c-.02-.7-.34-1.39-.33-2.09.3-11.35,1.47-22.78,1.92-34.1.11-2.78.22-6.57-.03-9.28-.95-10.47-6.12-7.73-13.93-8.04-13.87-.55-24.79-.25-38.56,1.44-4.53.55-9.61-.23-13.83,2.04l-.59,15.31c4.35,17.37,3.43,34.56,3.45,52.16,0,2.3,1.35,2.46-1.77,4.12-.81.37-.52-.77-1.05-.93-.46-.14-1.39.14-1.57-.03-.44-.4-.1-10.5-.04-11.95.45-10.83.87-18.66-.54-29.67-.78-6.1-2.71-11.26-2.36-17.62.22-4.08,2.17-8.62,1.03-12.66l.42-.52c1.08,0,2.73-.89,2.46.73h.48c.51-2.66,3.29-2.74,5.38-3.17l-7.33.74c5.23-2.45,10.14-.69,15.62-.99l-6.34-.97,9.76.48-2.93-.97,5.86.48-1.95-.97,4.88.48-1.46-.97,8.3.48-5.86-.97,11.5.51c8.02-.48,16.39-.73,24.39-.55,3.74.08,5.92,2.44,8.92,4.06Z"/><path d="M207.84,58.83c.12.05,1.79,1.7,1.84,1.81.25.49-.15.76-.49.99-1.86,1.3-9.72,1.56-12.22,1.44-18.22-.87-36.85-.71-55.13-.04-15.4.56-31.05,3.97-46.92,2.97-3.11-.2-6.52-1.11-9.86-1.27-2.75-.14-5.73,1.22-8.46-.68-.37-.52,1.73-2.41,2.17-2.46l43.99-.44c24.21-3.67,50.14-2.44,74.67-1.95,1.76.04,9.83-.62,10.4-.37Z"/><path d="M105.27,185.59c3.83.35,7.26.44,9.62,3.87,6.74,9.75-8.45,15.91-13.34,11.38-3.96-3.67-.76-12.77,3.72-15.24ZM103.45,197.23c3.51.35,7.46-.62,8.56-4.33.27-2.59-4.23-2.87-6.12-2.77-1.4,2.1-2.41,4.54-2.44,7.1Z"/><rect x="210.4" y="245.53" width=".48" height="1.95"/><rect x="209.92" y="235.77" width=".48" height="1.46"/><rect x="207.96" y="198.7" width=".48" height=".97"/><rect x="207.96" y="163.09" width=".48" height=".97"/><rect x="147.41" y="73.34" width="2.93" height=".48"/><path d="M146.3,134.93c.14.06,1.79,2.01,1.87,2.26.32.97.64,4.81.72,6.12.35,5.71-.52,11.39-.52,17.08-.48,1.44-1.65,2.52-3.14,2.72-3.49.46-13,.34-16.62-.03-2.68-.27-5.53-1.66-8.3-1.95-.47-.02.44,3.07-1.96,3.21-2.77.15-2.96-3.85-3.14-5.96-.33-3.81.22-14.6,1.07-18.34.2-.87.93-3.36,1.54-3.83l28.49-1.28ZM143.99,139.67l-23.39,1.03c-1.09,5.28-1.11,10.67-1.03,16.05,3.83-.39,7.31,1.5,11.1,1.74,4.1.26,9.06-.75,13.32-.27.24-6.25.34-12.29,0-18.54Z"/><path d="M147.29,126.4c-7.37,4.95-15.61,1.97-23.58,1.09-3.69-.41-8.59,1.56-9.04-3.66l1.96-.99c.3-.99-.7-.56-.95-1.08-1.5-3.23-.5-4.34-.49-7.18.02-5.14-.15-10.29.21-15.4l2.21.02.79-1.9c5.19-.7,10.39-.31,15.59-.53,2.76-.12,10.97-1.83,12.71-.05,2.2,2.25.3,12.93.19,16.35-.14,4.46.2,8.89.4,13.33ZM118.59,101.14v19.27c0,.17,1.23.95.98,1.21l-1.95.98c8.48-.29,16.98,3.56,25.34.93l1.05-22.14-.74-.74-24.68.49Z"/><path d="M181.48,124.93c-.97,1.7-11.66,1.28-13.8,1.07-4.42-.43-9.02-2.32-13.43-1.45.32-1.53-1-1.35-1.35-2.78-1.71-6.92-1.36-14.43-.59-21.4.16-1.43-1.02-1.9.71-3.16,1.33-.96,1.71.27,1.75-2.39,4.97.34,9.91-.8,14.88-.54,2.39.12,6.94.58,9.25,1.01,1.22.23,2.59,1.91,2.63,3.13-1.78,8.82-.25,17.64-.05,26.51ZM177.2,120.65c-.66-7.05-.92-13.98-.7-21.01-.74-1.02-8.67-1-10.28-.94-3.27.12-7.37,1.44-10.5.48l-.4,10,1.37,10.48c6.96,1.08,13.5,1.86,20.51.99Z"/><path d="M218.25,4.3c.02,1.94-2.26,10.28-2.95,12.71-1.79,6.32-5.7,12.87-10.02,17.79-4.29,4.89-9.41,9.28-16.37,8.77,1.31-1.99,3.04-5.25,3.39-7.58.22-1.53-.27-8.97-.57-10.59-.87-4.72-6.95-12.87-11.6-14.27-7.26-2.18-19.51-1.7-24.91,4.15.22-2.9-.3-6.18,0-9.02.17-1.62.91-3.96,1.83-6.22h-5.19c-.66,1.85-1.18,3.77-1.46,5.79-2.83,19.78,5.38,33.47,23.54,40.76,11.9,4.78,24.58,3.78,33.85-5.62,10.49-10.64,16.13-26.06,13.96-40.92h-4.05c.27,1.45.54,2.9.56,4.26Z"/><path d="M128.36,2.36v7.56c-4.04-.74-5.61-3.5-10.02-3.89-14.4-1.28-30.29,7.64-29.04,23.64.25,3.22,2.43,8.08,2.45,10.73,0,1.6-.83.25-1.23.25h-7.32c-1.16,0-5.18-1.3-6.44-1.86-11.02-4.95-10.25-20.9-7.01-30.6.91-2.74,2.66-5.45,4.57-8.15h-6.04c-1.01,1.59-1.89,3.17-2.51,4.67-4.72,11.46-4.88,31.37,7.44,38.11,16.38,8.96,42.76,2.47,53.6-12.74,5.85-8.22,8.8-19.86,6.59-30.03h-5.57c.25.95.53,2.11.53,2.31ZM100.03,32.84h-.48v-.97h.48v.97Z"/><rect x="208.93" y="139.19" width=".49" height="6.34"/><rect x="209.43" y="161.63" width=".48" height="2.43"/><rect x="209.43" y="160.16" width=".48" height=".97"/><rect x="209.43" y="158.7" width=".48" height=".97"/><rect x="209.42" y="149.43" width=".49" height="7.8"/><path d="M95.92,74.85c2.51-.29,5.24.15,7.77-.05,15.22-1.22,29.74-1.53,44.91-1.96,3.82-.11,7.67.11,11.49.02l-5.86.97,15.4.02c5.72-.85,11.5,1.05,17.31.47.13.64-.9.78-1.34.85-4.42.72-9.55.81-14.04.61-10.84-.5-21.37-1.16-32.24-.97-5.57.1-9.88-.66-15.14-.97-9.97-.58-20,2.99-30.03,2.43-.36-1.16.87-1.31,1.75-1.41Z"/><path d="M92.71,82.84v7.56c-.67-.05-.79-2.27-.84-2.82-.23-2.75.51-5.88-.63-8.64,2.97.75,1.47,2.65,1.47,3.9Z"/><rect x="93.2" y="184.06" width=".49" height="12.19"/><path d="M207.47,123.57c2.2.43,0-3.5,1.46-3.9v17.56h-.49v-13.17c-1.43-.29-.97.68-.99,1.73-.23,10.64,1.28,22.05,1.5,32.64.22,10.27-.37,20.51-.24,30.75.42,31.54,3.65,62.66,4.07,94.48h3.91l-.42-20.35c-4.3-57.62-3.82-115.49-5.39-173.15-.25-9.08-.64-18.03.48-27.07-6.64.37-4.12,7.47-5.32,12l1.93,37.49-.51,10.99Z"/><path d="M89.3,206.25c.53,9.28,2.17,18.99,2.16,28.3,0,13.37-1.64,29.37-.72,42.46.15,2.19.53,4.42.94,6.66h3.75c-1.26-18.25-.15-36.5.23-54.99l-1.97-30.46.97,6.1c2.18,24.12,1.45,48.58,1.91,72.68.04,1.89.08,4.41.22,6.67h3.75c-.01-.11-.03-.21-.04-.31-.54-5.47.19-11.15.04-16.62-.19-6.88-.43-13.63-.46-20.47-.1-20.43-1.93-40.31-2.66-60.54-1.12-30.77-1.81-61.88-1.8-92.61,0-3.99.04-7.99.02-11.97,3.95-.42,7.97-.54,11.91-1.03,4.43-.55,9.17-1.8,13.71-1.91,7.28-.17,15.2.32,22.46.48,9.69.21,19.22.99,28.81,1.51,6.19.33,12.18-1.16,18.34-1-.8,7.57-1.06,15.08-1,22.7.08,10.02.73,20.15.04,30.24-.46,6.82-2.09,13.65-2.48,20.45-.6,10.36.29,23.08.5,33.7.36,18.58.67,38.06,1.97,56.59.58,8.24,2.17,16.57,2.46,24.83.18,5.24-1,10.81-.51,15.96h3.87c-.25-1.07-.44-2.15-.47-3.25-.17-5.39.82-11.39.53-17.11-.19-3.82-1.22-8.02-1.48-11.69-2.05-29.29-2.91-58.92-3.44-88.27-.18-10.16,1.71-18.5,2.46-28.32.96-12.54.1-25.05-.02-37.54-.05-5.23,1.05-10.36,1.04-15.15,0-1.58-1.07-2.69-1.05-3.4,0-.15,1.73-.2.92-2.37-.54-1.45-2.47-.7-2.85-1.78,1.86-.82,3.66,1.98,4.63,1.96.15,0,.87-1.85,2.19-1.71-.75-6.06-8.68-3.91-12.91-4.17-20.91-1.3-43.03-1.44-64.02-.49-7.19.32-14.33,1.93-21.47,2.45-1.98.15-10.33-.61-10.98.74-.5,1.06,1.48.79,1.85,1.32.3.43.35,2.35.59,3.06l-1.3-1.24-1.89.51c-2.39,7.67-.15,15.83.25,23.67,1.76,34.98-1,70.29.99,105.35Z"/><path d="M196.71,77.1l-1.34,32.58c1.54,26-.62,52.05-.45,78.05.06,8.75,1.03,17.58,1.05,26.34.02,11.29-.28,20.72.27,32.2.61,12.56.7,24.87,1.86,37.4h4.51c-5.09-60.43-1.98-121.11-2.48-181.81-.06-6.88,1.83-16.28,1.03-22.93-.29-2.41-3.9-3.05-4.44-1.82Z"/></svg>