<?xml version="1.0" encoding="UTF-8"?><svg id="Layer_1" xmlns="http://www.w3.org/2000/svg" viewBox="0 0 283.46 283.46"><path d="M75.94,109.55c.36.56,1.72-.19,1.37,1.11l-2.49.07c.45,3.56-4.07,5.4.85,8.79.7.49,6.68,2.85,7.31,2.85,1.19,0,1.98-1.36,3.2-1.44,1.1-.08,19.63,7.06,20.58,7.81.61.48,1.06,2.09,1.84,2.72-3.93,3.25-7.59,5.05-12.2,1.27-.65,3.51,2.64,6.91,4.71,9.71,3.9,5.3,8.76,10.04,13.15,14.89l2.15-.53,5.05-15.94c-2.79-2.54-6.99-3.09-8.49-6.87l10.9-3.92,1.06-5.72c2.06.26,4.25.26,6.05,1.58,1.27.93,5.65,9.31,5.55,10.48-.39,4.55-6.26,3.47-8.93,5.88l-2.77,9.94c3.44-2.68,9.27-4.96,13.58-3.86,6.46,1.64,14.71,17.48,14.49,23.81-.05,1.43-3.27,2.96-4.02,4.08-1.31,1.97-1.69,4.41-3.72,6.9-4.77,5.85-5.25,3.48-10.84,4.45-9.42,1.63-22.81,6.72-22.23-8.24-12.43,5.02-16.44-8.16-4.24-12.29l-9.31-9.76c.93,9.02-5.27,19.06-14.83,19.57-4.68.25-7.93-2.28-12.32-2.19,5.14,3.29,10.86,6.48,16.39,9.06,24.63,11.51,48.93,19.63,66.72,41.85,3.25,4.06,5.73,9.6,9.36,13.54,5.13,5.57,14.65,7.83,4.25,15.69-1.82-2.1-1.4-4.45-2.51-6.41-.72-1.28-7.14-6.59-8.98-8.84-3.83-4.69-6.62-10.19-10.61-14.83-7.37-8.57-22.78-18.25-32.81-24.02-12.08-6.96-35.44-11.77-45.25-20.91-3.47-3.22-3.91-9.63-10.35-7.9-1.57.42-3.79,2.96-5.45,3.05-1.04.05-3.49-3.01-4.38.74-.7,2.93,2.88,5.85,3.94,8.48,1.28,3.18,1.1,7.21,2.53,10.19,1.32,2.74,4.45,4.8,5.94,8.48,2.11,5.21,1.79,10.9,2.73,16.36,4.22-.9,15.67-5.89,19.1-5.85,1.5.02,4.45,2,5.05,3.32,1.4,3.08-1.46,13.31-2.77,16.71-2.77,7.15-10.49,15.42-11.91,23.78s13.47,25.33-9.04,25.71c-5.04.09-15.32-.27-20.15-1.12-6.13-1.07-13.87-6.94-18.46-11.23-1.1-1.02-2.74-2.12-2.54-3.82.73.21,4.71-1.67,4.87-1.87.52-.66.11-2.37,1.03-3.67,1.89-2.67,4.51-4.81,6.33-7.26,7.17-9.63,14.47-19.85,19.13-30.91l1.8.13,1.61,2.01,1.7-2.97c.24-.62-1.98-.4-2.43-1.78-1.04-3.14-.32-10.47-1.52-14.61-1.01-3.47-4.81-6.42-5.99-9.28-1.09-2.66-.82-5.81-1.66-8.52-1.01-3.28-3.74-5.25-3.66-8.63l2.53.84c-1.64-2.46,4.44-11.11,5.93-12.2.31-.22,6.7-2.24,7.23-2.26,2.72-.14,5.85,1.08,8.04,2.6-1.87-6.59,2.29-13.64,5.1-19.5-3.47.57-6.09-1.13-8.24-3.6-.17-.2.56-1.09.41-1.32-.27-.41-1.71-.56-2.25-1.52-3.54-6.32-.59-10.71.67-16.97.36-1.8-.28-3.96.24-5.69.59-1.98,2.98-2.07,3.17-2.36.12-.2-.87-1.79-.73-2.8.51-3.75,2.83-8.28,7.18-8.21,3.26.05,2.13,1.43,3.28,3.18ZM78.63,128.02c-.92-.6-8.54-5.11-8.95-4.62l-1.7,15.26c6.27.04,12.05-2.26,13.59-8.9-1.57,0-2.07-1.18-2.93-1.75ZM94.27,131.89l-4.23-1.71c-.83,3.45,2.59,4.09,4.23,1.71ZM80.09,150.79c-3.47,2.93-9.26,15.64-3.38,18.58,16.15,8.1,17.18-19.86,6.17-19.65-.94.02-2.06.45-2.79,1.06ZM144.32,169.19c.33-4.15-6.4-14.75-10.96-13.16l-10.23,5.54c-1.46,1.54,2.74,2.56,3.55,2.78,5.86,1.63,12.24,1.56,17.64,4.84ZM118.03,168.34l-2.08-1.7-3.76,1.81.77,4.14c2.34-1.11,1.46-5.11,5.08-4.24ZM128.21,169.2c-3.41.59-3.4,2.01-6.78,0l-2.56,7.63c2.95-.77,4.23,2.78,3.39,5.09,6.73.18,15.28-.5,19.4-6.49l.11-1.52-8.03-3.02-.44,5.1-7.59-1.74,2.5-5.03ZM108.69,171.73l-2.46.07c-2.5,5.23,3.97,6.56,2.46-.07ZM43.8,276.9c7.38,1.05,16.95-.77,24.6,0,3.75-4.53-.61-11-1.2-15.76-1.38-11.08,9.37-20.63,12.25-29.17,1.11-3.3.97-8.11,2.83-11.5-1.82-2.89-3.9.18-5.97.72-4.2,1.09-9.19,1.4-12.79,4.18-2.56,1.98-2.92,5.24-6.27,6.47l-2.83-2.43-23.76,34.76,26.25-6.87c-.37-6.32-2.58-11.85-1.64-18.56l2.53,2.54.84-5.08.99,16.4c10.59,5.79,1.21,8.6-5.63,10.75-7.27,2.29-15.09,4.03-22.5,5.93l4.32,4.59c2.32.71,5.76,2.73,7.98,3.04Z"/><path d="M178.49,274.12c-1.05-1.03-1.84-4.15-1.94-5.71-3.16,1.28-7.41,1.45-10.61.04l-1.23,1.22c3.86,15.49-16.99,9.41-25.94,9.73-3.77.14-8.7,1.65-12.45,1.5-5.51-.22-12.56-3.45-18.3-4.61-7.15-1.44-14.43-1.63-21.58-3.02-4.38-2.43-5.62-6.37-4.84-11.18.88-5.45,6.74-6.53,10.36-8.92,1.36-.9,1.16-2.58,4.01-3.85,11.08-4.93,26.88-2.57,38.56-2.08,8.41.35,16.4-.91,24.68,1.62,8.79,2.68,3.3,7.93,8.15,14.32,6.19,1.44,12.84-1.5,16.44-6.61,1.59-2.26,1.58-4.4,2.92-6.41,2-2.99,10.56-9.06,14.22-9.55,1.98-.26,8.08.97,9.12,2.35s2.42,7.49,3.44,9.28c3.61,6.32,8.37,3.16,5.88,13.64-.91,3.85-2.7,10.58-6.85,11.8-7.34,2.16-28.25,2.14-34.06-3.56ZM206.03,246.59c-2.31-1.91-8.88-.08-11.24,1.46-7,4.56-6.07,10.07-10.2,15.25-1.66,2.08-4.86,3.01-6.33,5.11,5.83,1.71,11.15,5.62,17.42,5.96,4.94.27,10.51-1.89,15.54-1.83.42-3.33,3.99-7.32,3.54-10.44-.29-2-3.92-4.98-5-6.95-1.02-1.86-2.21-7.3-3.73-8.56ZM86.85,268.21c10.89,3.05,22.38-.17,33.31-1.48,13.51-1.62,23.72-1.93,36.36-8.6,6.63-3.5,1.73-5.3-3.3-5.81-8.39-.85-22.16-1.68-30.56-1.74-3.12-.02-6.36,1.67-9.3,1.72-3.88.07-8.06-1.79-12.36,1.29-.87.62.29,1.72-.4,2.16-2.1,1.33-5.89,1.2-8.04,2.05-3.92,1.53-8.14,6.16-5.71,10.42ZM162.13,262.48c-8.27.71-15.47,5.62-23.57,7.38s-16.03,1.05-23.92,2.37c3.79,1.92,9.77,3.76,13.99,3.87,4.08.11,7.14-1.48,11-1.78,5.18-.4,14.68,2.06,18.55.74,3.63-1.24,1.14-5.82,1.38-7.88.25-2.14,2.83-2.51,2.57-4.71Z"/><path d="M243.82,38.32c1.99,1.22,5.19.6,7.38.27.84.86-1.04,12.78-1.73,14.8-1.43,4.2-5.73,7.8-7.75,11.76-19.25,37.68-30.3,78.19-39.08,119.52-1.95,9.19-6.49,18.47-8.88,27.59-3.02,11.57-3.88,23.75-8.85,34.83l-3.27.12c5.29-11.3,5.81-23.83,8.91-35.61,2.82-10.72,7.12-19.69,9.51-31.2,8.39-40.45,25.49-80.32,28.21-121.9.37-5.63-1.76-9.34-2.31-14.64-.27-2.66,1.55-4.81-.39-8.09-1.21-2.05-13.34-7.2-16.52-8.92-4.45-2.4-9.32-4.61-13.46-6.9-5.56-3.08-14.89-17.23-21.34-9.11-1.87,2.36-3.48,14.47-4.74,18.59-9.35,30.74-23.25,54.13-38.92,81.51-1.61,2.81-2.14,6.65-4.94,8.2-.54-4.12.62-7.19,2.38-10.76,4.47-9.06,11.24-18.27,15.89-27.37,7.83-15.33,13.72-31.46,19.28-47.72,1.89-5.52,5-20.01,7.36-23.81,1.12-1.8,8.46-6.16,11.03-5.25,6.01,2.15,11.35,9.52,15.86,12.17,2.09,1.23,4.76,1.38,6.82,2.51,9.17,5.05,16.8,10.87,26.71,13.07,8.66,1.92,6.92,2.7,12.83,6.32ZM240.17,37.77l-9.32-1.73c-.95,8.58,2.21,15.61,1.69,24.16-.53,8.64-3.76,18.14-5.07,26.72,1.27-.45,2.12-3.25,2.68-4.52,2.59-5.83,4.32-12.75,7.16-18.28,3.87-7.54,10.74-12.87,9.6-22.93l-7.57-1.76.84-1.66Z"/><rect x="59.51" y="241.28" width=".83" height="1.69"/><path d="M82.29,154.09l.52,1.54,2.57-1.68c5.47,8.16,0,15.6-9.77,11.84,1.53-4.85.08-9.25,5.56-11.83l1.11.13ZM82.39,156.47c-3.14-.68-1.2,4.14-1.68,5.93,3.47.38,1.85-4.11,1.68-5.93Z"/><path d="M242.72,179.79c-1.13,9.56-4.98,18.88-2.14,28.44,1.11,3.74,5.17,6.52,6.65,10.31,2.07,5.29,1.48,12.67,2.67,18.54,1.53,7.62,6.44,26.27,9.36,33.04.59,1.36,1.23,2.2,2.05,2.62v-14.86c-2.17-6.51-5.45-18.46-6.33-23.33-.96-5.33-.33-11.14-2.12-16.54-3.26-9.84-10.16-9.19-8.37-23.72,2.89-23.55,5.49-47.2,7.95-70.84.86-8.25,3.53-17.89,3.85-25.93.2-4.89-1.8-8.33-1.72-12.66.37-20.61,8.9-34.98,2.99-56.43-.78-2.82-5.04-14.74-6.47-16.43-1.09-1.28-8.23-5.27-10.07-6.05-11.99-5.06-16.67-2.56-28.45-2.94-7.55-.24-15.52-2.66-23.29-1.72.25,1.1,1.37,1.88,2.35,2.31,2.37,1.03,21.2,3.49,24.5,3.55,8.88.17,5.95-2.46,16.79.96,5.12,1.62,9.2,2.66,14.02,5.49,2.36,6.22,5.34,12.21,6.68,18.76.55,2.68.2,5.47.52,7.96.12.95,1.62,1.88,1.77,2.93.99,6.99-4.22,27.18-4.7,36.5-.46,9.12.73,18.99-.02,27.96-2,23.93-5.65,48.13-8.48,72.09Z"/></svg>