<?xml version="1.0" encoding="UTF-8"?><svg id="Layer_1" xmlns="http://www.w3.org/2000/svg" viewBox="0 0 283.46 283.46"><path d="M216.89,5.8c.26.24,1.61-.68,2.32-.55.75.14,1.21,1.3,1.85,1.53,6.65,2.47,2.95-2.01,8.19-3.48l1.4.81c-.64,3.41-1.15,8.17,1.73,10.65,1.22,1.05,4.17,1.34,3.68,3.66-.78,3.64-6-.38-6.76.45.52,9.05-5.88,7.67-4.83-.69-1.34-.05-1.41-.36-1.35,1.03.23,5-.08,3.2-4.52,5.57l-1.73-.91-.68-4.33c-3.35.88-6.24-.38-8.62-2.7l-2.13,2.76c-2.15.23-2.71-2.65-3.71-3.15-4.76-2.38-18.95,4.77-21.05,9.3-1.2,2.58-.98,9.99-5.37,8.88-2.83-.71-3.55-10.06-4.4-12.88-.78-2.57-3.77-4.01-.87-6.64,1.17-1.06,9.18-6.32,10.77-7.15,3.45-1.79,25.17-7.77,27.99-6.89,1,.31,1.66,1.79,2.3,1.89.9.15,1.43-1.45,3.02-1.07,2.82.69,2.57,3.71,2.76,3.89ZM211.36,5.79v-1.37h-.68v1.37h.68ZM204.37,9.35c-6.74-1.12-14.5,1.86-19.2,6.78,6.86-3.13,12.48-7.2,19.98-2.75l-.78-4.03ZM224.46,13.37l-.34-2.06-1.03,1.04v1.02s1.37,0,1.37,0ZM184.48,16.83l-6.54,3.46c-.65-1.31-1.43-2.23-3.11-2.09l.69,6.2,8.95-7.57Z"/><path d="M211.96,66.53c2.09,3.43-5.49,5.31-7.48,5.78-4.81,1.12-18.89,4.36-15.1-4.45,4.46,1.85,20.13-5.34,22.58-1.33Z"/><path d="M231.21,69.04l-2.86.8c-1.1-.44-1.1-1.38-1.18-2.36-.32-3.8,1.24-11.9,1.73-16.1.29-2.47-.22-4.89,1.1-7.68,1.21.22,1.24,1.4,1.49,2.35.84,3.3,1.36,20.74-.26,22.99Z"/><path d="M200.21,59.43c-2.94.49-6.46-1.2-6.76-4.42-.23-2.47,3.04-14.09,7.3-10.68,3.44,2.76-4.71,9.03,1.64,12.12l-2.18,2.98Z"/><path d="M210.67,78.85c.44,2.29-4.67,2.66-5.44,3.52-.09.1.57.85.41,1.12-.1.18-2.12,2.77-2.29,2.83-1.2.44-8.88,1.62-10.27,1.54-1.67-.1-2.93-.18-3.68-1.89-.79-3.04,3.56-2.15,5.46-2.61,5.46-1.32,10.28-4.3,15.81-4.52Z"/><path d="M192.01,36.71c-.22.3-5.32,2.57-6.2,1.88-.38-.3-2.29-5.74-1.73-6.64,3.01-.6,6.21-4.58,8.94-2.65s-.45,3.56-1.24,5.44c-.26.63.43,1.7.23,1.98Z"/><path d="M210.21,36.6c-.51-.38-.89-1.68-1.48-2.21-.01-1.02,10.92-4.33,12.08-4.34.84,0,2.12.99,2.24,1.67.39,2.21-10.39,6.69-12.84,4.88Z"/><path d="M186.63,47.09l-1.39-3.59,3.7-3.24c2.69,2.18,1.32,6.87-2.31,6.83Z"/><path d="M197.58,119.52c.3,3.65-1.17,5.11-4.82,4.82.54-2.66,1.65-5.52,4.82-4.82Z"/><path d="M201.72,106.41c-.34-.32,1.6-5.12,3.07-4.8,3.8,2.44-.16,4.83-3.07,4.8Z"/><path d="M214.12,44.39c-2.24.39-3.85-.81-4.82-2.74l3.11-1.3c1.24.92,1.84,2.52,1.71,4.04Z"/><rect x="251.92" y="162.09" width="4.37" height="1" transform="translate(-40.91 225.6) rotate(-44.67)"/><path d="M22.78,248.44c4.84,2.01,16.09,2.9,20.89.8,2.79-1.22,9.95-8.5,11.48-11.27,1.86-3.36,1.73-6.38,2.83-9.58.76-2.19,3.1-5.66,3.61-8.11,1.15-5.49-1.31-7.29,6.24-9.61,4.82-1.48,13.45-.87,17.87,1.73,6.75,3.97,4.47,8.93,4.41,14.89-.01,1.19.75,2.58.68,4.21-.24,5.73-3.12,9.67.74,15.05,4.66,6.49,15.33,3.46,18.84-2.92,4.42,3.18,8.97,5.02,14.48,4.75,4.83-.24,12.56-3.6,14.14,3.45-5.79,2.2-15.73,4.26-20.27,8.35-6.91,6.23-9.68,15.03-2.83,22.28h5.12c-.71-6.86-7.65-8.05-1.68-15.46,5.09-6.33,14.64-7.1,21.71-10.33-3.11,8.87-13.7,15.05-11.1,25.8h4.84c-1.77-9.25,6.49-13.58,9.56-20.1.95-2.01,1.21-6.9,1.67-7.63.55-.87,4.31-.81,5.55-3.07,2.17-3.95,2.37-15.12-2.89-16.75-2.06-.64-4.05.04-5.86-.35-3.5-.74-8.9-1.99-12.3-2.87-5.94-1.54-9.87-6.05-16.35-.54-.56-2.6.73-5.31.55-7.73-.34-4.53-4.65-17.11-7.82-20.49-1.8-1.91-5.79-3.59-6.51-6.24.47-.66,14.5-1.62,16.16-1.35,4.57.75,15.78,8.39,21.05,9.29,1.8.31,5.06-.51,6.89-1.06.83,1.16-8.39,18.33.87,13.09.42-.24,3.44-7.92,3.65-8.92,1.78-8.36-4.28-18.56-5.2-26.92,1.17.53,1.86,1.61,3.24,1.92,13.54,3.08,31.69-3.19,44.1-8.69,14.35-6.36,26.68-15.85,39.53-24.59l-4.18-3.52c-23.29,17.62-51.02,35.27-81.69,31.7l-2.03,2.49c-6.27-3.77-9.65-10.45-14.13-16-1.03-1.28-3.4-1.9-3.49-4.28l2.1-2.45-6.21-1.18c-1.27-6.79,1.78-13.4,1.39-20.19.82-.06,1.85.26,2.58-.16.37-.21,5.39-5.27,6.04-6.03,5.56-6.49,6.98-13.46,1.71-20.68,8.02-.53,16.22,1.52,24.12,0-.4,3.18,2.36,7.05,2.07,9.93-.13,1.23-1.17,2.65-1.48,4.09-2.52,11.86-5.84,28.05-6.13,40.05-.09,3.75,1.63,13.84,7.19,12.05,3.54-1.14-.74-4.28-1.32-5.45-2.14-4.37.36-20.18,1.15-25.77.77-5.44,2.24-10.8,2.67-16.29l7.28,16.49c1.39,4.69-2.47,11.49,4.44,11.78l-1.77,5.52c1.63,2.26,3.83,1.41,6.2,1.91,12.27-12.35,24.6-24.53,38.33-35.33,4.33-4.85,9.21-11.4,16.53-10.02l-2.07-12.4,8.56.11c1.4.35,1.16,2.47,1.1,3.65-.36,7.12-3.43,24.17-5.68,30.88-.61,1.81-3.64,5.17-1.87,6.66.13.11,3.22-.24,3.38-.31,4.94-2.18,6.04-22.65,6.98-28.19.22-1.32,1.04-2.26,1.27-3.55.91-5.04,1.62-10.35,2.12-15.46.95.07,1.92,2.47,2.02,3.14.53,3.6-.42,7.8.2,11.51.55,3.27,3.26,6.31,4.07,9.71.97,4.08.71,8.73,1.46,13.01.85,4.79,2.89,9.32,3.93,14.07-3.36,7.35-9.86,13.63-15.83,19.21-16.92,15.8-35.55,31.11-56.35,41.53-9.59.47-19.19,1.71-28.77,2.25-1.82.1-9.38-1.46-7.95,1.69,1.09,2.41,17.19,1.88,20.36,1.76,4.26-.17,9.48-1.31,13.73-1.44,15.36-.47,31.04,2.47,45.6-2.66l18.03-1.62c3.38-4.61,6.59-9.46,9.24-14.53,4.79-9.16,7.71-17.86,8.18-28.35.44-9.75-2.37-18.56-.72-27.94-.41.71-1.37,2.44-2.06,2.75-2.74-6.83-2.26-14.33-3.77-21.39-.77-3.61-3.37-7.37-3.78-10-.53-3.36.32-7.44-.1-10.93-.2-1.68-2.74-8.39-2.01-9.36,6.49,2.62,10.62,2.16,14.49,8.46.29.47,1.32.46,1.39.96.16,1.14-.65,2.31-.59,3.33.96,15.87-.97,21.36-3.58,36.18,1.47-2.51,1.63-4.91,3.98-6.68l3.61-13.31,1.09,1.65v-23.01c-1.03-1.18-.81-3.23-1.8-4.46-.73-.9-5.34-3.16-6.69-3.65-1.83-.67-10.89-3.26-11.77-2.03-.33.46.12,1.45-.56,1.95-.97.71-3.73-.57-5.09.62l-.7-5.51-.69,2.06-2.41-1.97-1.72,1.28c-.51-2.38-1.04-4.82-1.38-7.24-.61-4.42,1.16-11.07-5.52-10.67-2.06,10.08,1.54,20.18.69,30.33-2.82.3-7.39-.87-9.63,1.05-3.48,3,.44,9.6-1.06,12.04l-34.13,28.59-8.95,9.31c1.3-5.98,3.49-11.7,5.68-17.4,5.39-13.99,11.46-26.3,19.94-38.65,2.54-3.7,7.08-5.31,3.61-10.14-3.98-.04-5.42,1.64-7.75,4.63-4.79,6.15-7.99,14.82-12.44,21.33l-12.48,28.51c-1.28-17.18-1.36-34.71,2.53-51.57.74-3.22,4.56-10.97,2.91-13.48-3.3-5.02-5.99,2.25-7.16,5.1-5,12.21-4.67,25.96-5.87,38.88v13.49c-3.16-11.15-8.32-23.11-8.95-34.81-.41-7.6,2.12-6.29,3.27-10.5,1.72-6.32-5.61-7.62-5.82-9.46,2.46-8.88,12.12-12.54,20.45-13.45-.23,3.4,2.51,7.31,6.22,6.87-1.96-2.3-3.72-5-3.38-8.19l2.29-.72.36-1.4c-1.79.2-.66-.94-1.31-1.71-.63-.74-2.18-.74-2.65-2.24-1.12-3.57-.8-14.13-2.85-16.44-1.21-1.36-3.17-1.58-4.11.09l3.32,18.14c-8.24,2.06-15.79,3.64-21.31,10.75-.47.61-3.29,5.32-3.33,5.64-.09.58,1.53,2.58.71,4.19l3.65,3.61c-4.6-1.16-9.78-1.07-14.26-2.28-4.67-1.26-11.13-9.2-14.31-13.26-4.45-5.69-15.84-24.31-21.6-26.65-.86-.35-1.58-.73-2.56-.55.26,1.21-.66,2.66-.5,3.7.29,1.89,10.49,12.29,12.5,14.97,1.83,2.44,2.87,5.3,4.66,7.75,2.73,3.74,11.26,13.98,14.7,16.32,5.18,3.52,14.99,2.86,21.03,4.14-3.62,4.74.13,11.67,0,17.22-.86.86-12.08-.66-14.13-.69-2.36-.03-6.69,2.4-7.58-.7l-1.33,1.44c-3.43-.5-5.8-1.03-8.34-3.48-5.7-5.49-7.5-11.14-11.47-17.48-1.32-2.11-3.72-3.63-4.83-6.2-1.74-4.01-.72-6.76-1.25-10.46-1.47-10.07-7.83-33.5-16.99-38.84-8.54-4.98-25.67.84-30.88,8.89-2.68,4.15.83,3.01.3,4.44-6.37,5.69-11.21,13.46-13.44,21.71-1.92,7.12-2.31,10.51,1.59,17.03,4.53,7.57,9.3,10.97,5.09,21.36-2.41,5.94-8.83,8.71-10.64,12.11-3.38,6.35-8.03,21.36-7.33,28.34,1.21,11.99,8.85,16.7,1.42,29.85-.54.96-2.67,5.15-3.9,3.64-8.47-15.64-16.48-30.9-9.96-49.2l-1.44-.74c7.16-9.18,20.55-13.49,26.12-24.22.69-1.34,4.61-9.64.99-7.98-2.05.94-3.62,6.14-5.37,8.43-6.39,8.35-18.29,13.09-25.16,21.71-1.3,1.64-5.12,6.07-2.43,7.68,1.66.99,2.03-1.58,3.1-1.83l-1.99,11.98c.83,5.25.96,10.26,2.5,15.43,2.37,7.95,8.22,14.42,10.39,22.46-5.4,5.29-12.01,9.2-16.83,15.29v7.85c1.23-3.55,3.14-6.99,6.26-10.32,3.05-3.27,7.93-5.68,11.06-8.93.15,3.43-.63,6.88-1.55,10.17-3.42,12.25-10.22,16.36-7.6,30.67,1.53,8.39,14.46,13.31,22.07,11.37,1.19-.3,7.13-3.92,8.13-4.97,3.32-3.51,5.59-9.21,8.92-12.78-1.09,3.78-3.16,7.24-4.67,10.83-.91,2.16-.63,4.2-1.9,6.37-5.64,9.63-17.86,14.55-28.28,9.72-3.04-1.41-3.38-4.59-4.44-5.21-.89-.52-2.33-.23-3.39-.74-1.94-.94-3.41-2.02-4.61-3.32v6.69c1.92,1.18,4.02,2,6.17,3.34,1.85,1.16,2.78,3.2,4.89,4.07ZM114.17,239.1c.19-.45,3.28-3.4,3.88-3.71,3.99-2.09,8.05,1.56,11.79,2.51,2.18.55,5.3.48,7.91,1.05,3.03.67,5.76,2.85,9.51,1.86l-1.03,7.59c-3.56,2.46-3.09-1.18-5.15-3.14-6.81-6.47-16.71.58-26.03-4.99-.41-.24-1.36-.01-.87-1.17ZM258.27,174.33c-.96,12.13-8.27,23.03-14.51,33.05-5.97,1.55-11.94.82-18.07,1.92-3.29.59-6.5,2.23-9.85,2.56-7.73.78-16.6-.55-24.46,0l11.39-6.87c16.23-10.85,31.36-23.14,45.83-36.2l-1.37-.68c3.85-4.09,8.07-8.21,10.35-13.44,2.18.87-.81,3.51-.69,4.81l1.37-1.37c-.32,5.27.44,11,.03,16.22ZM262.38,173.96h-.69v-17.57c0-.48-1.56-1.73.69-2.41v19.99ZM261.01,149.84h.68v3.44h-.68v-3.44ZM261.01,174.65h.68v3.44h-.68v-3.44ZM260.32,178.79h.68v2.06h-.68v-2.06ZM259.61,142.26l.69,4.13h-.67s-.69-4.13-.69-4.13h.67ZM258.25,140.19h.68v1.37h-.68v-1.37ZM256.78,126.83l1.45,12.66-1.89-6.03-.86-10.51,1.29,3.87ZM251.36,102.29c1.26-.14.63,1.59.64,2.42.03,2.39-.19,4.82.04,7.22l-1.11-5.28.44-4.36ZM249.29,92.64h.68v2.75h-.68v-2.75ZM243.77,89.88h.68v1.37h-.68v-1.37ZM242.38,114l-2.76,17.91c-1.24.02-1-2.59-.91-3.33.27-2.21,1.19-4,1.56-6.02.46-2.53-.56-6.75,2.12-8.56ZM108.66,237.56c-3.3,2.41-4.55,6.8-9.32,6.77-7.2-.04-3.42-8.96-3.23-13.51.25-5.85.04-11.18-2.5-16.66-1.57-3.38-2.91-5.01-6.29-6.81-.73-.39-5.58-2.37-5.9-2.37h-11.37l7.6-3.78c5.68-1.61,9.92-3.59,15.83-1.39,16.29,6.06,16.16,23.07,15.18,37.75ZM98.79,173.05c-2.52,1.81-8.35-.2-10.82-1.52,1.69-3.07,1.06-8.49.22-11.92-.67-2.72-11.34-17.36-10.55-18.04,12.9-.04,25.93-.33,38.59-2.76-1.25,6.93-1.52,13.85-1.49,20.91-4.14,3.24-8.56,6.09-12.62,9.44-1.35,1.11-2.68,3.43-3.33,3.9ZM117.17,165.8l1.81,1.61c-2.5,3.11-6.45,4.35-10.33,4.47.7-1.67,7.37-6.32,8.52-6.09ZM125.2,169.14c2.44,1.44,3.94,3.93,5.8,5.91,1.74,1.86,7.82,7.1,8.53,8.36,2.41,4.29,3.92,14.45,4.97,19.49-1.13.27-.27-1.04-1.17-1.36-3.05-1.07-7.41-.18-10.54-2.78l3.31-2.39c.1-3.79-12.01-8.8-15.37-10.01-2.07.05-.71.79.15,1.23,1.9.97,3.63.8,4.32,3.6-4.2-1.61-9.48-1.3-12.39-5.16l3.08-.34.35-1.38-8.96-3.8c7.37-1.05,16.09-2.84,17.93-11.37ZM113.88,97.41l3.74,3.49c-2.93-.7-4.81-.1-7.58.7l-1.38-13.09,5.22,8.9ZM110.72,107.79v-.68h2.75v.68h-2.75ZM111.41,113.99h-2.06s0-1.37,0-1.37h1.02s1.04,1.37,1.04,1.37ZM111.41,129.51c1.39-.36,7.03-4.71,7.91-5.88,1.24-1.66.67-11.9-.5-12.91-.76-.66-3.56-.34-3.96-2.23l9.63,2.42,5.26,7.55c-3.35,11.64-18.53,13.92-29.03,14.82-10.82.93-29.01,2.52-37.79-4.25-5.92-4.56-1.6-7.23,2.7-11.19,5.28-4.87,9.94-6.24,16.83-7.98v5.51c-7.49-3.42-18.81,5.22-12.7,13.05,1.16,1.49,5.19,2.44,7.06,2.65,8.91,1.03,25.97.69,34.6-1.57ZM87.66,33.31c.63.24,3.91,2.46,4.14,2.83.73,1.17-.57,2.74-.28,4.31.23,1.28,1.78,2.58,2.32,3.95,5.68,14.36,7.23,32.47,8.61,47.91.62,6.96.8,14.02.7,21.01-2.66-.88-4.19,1.55-6.01,1.92-1.95.4-5.56-.84-7.77.15.77-11.93-.8-22.96-2.97-34.6-2.29-12.32-5.56-26.48-10.29-37.98-.53-1.29.93-3.08-1.92-3.25,2.7-3.37,9-7.97,13.48-6.25ZM82.45,27.86l-11.68,7.88c-3.53-1.06-5.2.98-8.3,1.76,4.59-6.23,12.89-7.86,19.99-9.64ZM39.05,229.46c-3.51.95-12.67-3.23-14.52-6.2-5.73-9.23,3.22-18.95,5.88-27.25,1.64-5.11,1.53-12.04,3.31-16.67,1.76-4.58,7.49-8.48,8.59-14.84,1.71-9.93-4.55-18.53-4.71-26.72-.06-2.86,3.51-15.85,4.74-18.75,2.99-7.04,12.95-12.08,15.35-19.8,1.87-6.03.07-12.66-2.1-18.31l2.32,1.34c3.85-2.48.68-4.33-.06-6.72-2.27-7.38,2.92-16.84,6.81-23.11.72-1.16,6.52-6.92,2.31-5.96-1.14.26-1.36.63-2.12,1.33-4.25,3.95-10.56,16.79-11.27,22.51-.37,3.05-.2,6.28.61,9.22l-3.33-3.9c-3.79-6.09-2.7-8.81-.43-15.37,2.2-6.35,7.84-15.14,13.5-18.9,1.22-.81,4.06-2.59,5.08-1.11.48.7,3.5,9.57,3.99,11.17,2.66,8.7,3.86,17.35,5.51,26.2,1.73,9.3,4.24,18.54,3.96,28.1-9.23,0-15.51,1.18-22.1,7.89-13.14,13.38-3.11,23.45,11.76,26.57-1.34,2.23-.24,3.86.57,5.97,1.65,4.35,9.5,13.91,9.77,16.48.07.71-1.13,6.27-1.38,6.49-.42.38-2.31-.75-3.05-.58-.17.04-2.41,2.27-2.46,2.43-.85,3.28,5.35,6.59,8.08,7.64,4.82,1.85,11.77,3.77,16.73,2.23-.24,2.96-.51,5.92-1.12,8.87-.3,1.48-1.51,2.87-1.58,3.88-.15,1.98,2.98,2.91,2.01,3.79-.32.29-6.48-3.01-8.09-3.28-6.44-1.07-22.06,3.97-26.86,8.32-1.71,1.55-1.75,5.11-1.94,5.34-.71.81-2.63.89-3.75,1.72-7.36,5.45-8.66,16.9-20,19.98Z"/></svg>