<?xml version="1.0" encoding="UTF-8"?><svg id="Layer_1" xmlns="http://www.w3.org/2000/svg" viewBox="0 0 283.46 283.46"><path d="M138.15,1.68c.51.44.38,1.7.8,2.29,5.85,8.24,5.85,17.37,6.07,27.48.26,12.35-2.53,24.39-5,36.44-9.26,3.5-19.65,3.26-29.35,4.77-11.27,1.76-21.55,3.62-33.02,5.02-4.27.52-12.28,2.89-16.03,1.9-2.02-.53-4.93-2.83-2.43-4.73,4.87,1.18,9.79-1.26,14.75-1.17-.35-1.09-3.66-1.69-3.92-2.63-.58-2.11.53-5.04.59-7.13.26-9.27.01-19.3-1.21-28.48-.22-1.65-2.37-9.34-1.56-9.81,4.06-.95,4.76,3.46,5.38,6.55,2.21,10.94,1.82,22.56,1.85,33.67l50.35-6.72c-.73-4.39-.24-9.64.06-14.2.1-1.47.99-2.86,1-4.47.03-6.61-3.5-15.19-2.74-22.16-.6-.6-11.39,2.84-13.31,3.19-9.56,1.74-20.29,3.11-29.99,4.14-1.34.14-2.84,1-4.04,1.03-2.03.05-5.44-2.19-4.05-4.37.59-.93,13.88-2.08,16.26-2.48,6.49-1.09,13.11-2.17,19.58-3.36,3.98-.73,13.68-4.58,16.82-4.19,4.62.57,2.82,7.41,3.21,10.78.53,4.55,1.97,9.41,2.25,13.97.52,8.5-2.19,16.87-.17,25.22l-.39.53c-2.97.19-6.06,2.17-8.78,2.48-11.5,1.31-23.53,1.62-35.02,3.53-3.58.6-8.93,1.94-11.61,4.33l60.96-9.25c.89-.59,1.47-2.76,1.78-3.81,3.73-12.41,4.66-37.17,1.33-49.6-.21-.78-.96-3.64-1.67-3.77-3.23.93-6.5,1.78-9.8,2.4-18.36,3.46-36.62,7.17-54.87,11.15-4.1.89-10.76,4.58-14.24,1.99-.82-.61-1.93-1.71-1.15-2.83.3-.42,8.57-2.6,9.93-2.95,19.22-4.87,39.23-8.39,58.66-12.38,2.45-.5,11.24-3.68,12.72-2.41Z"/><path d="M196.32,21.87c.34.36,1.45,2.73,2.41,3.43-.91,5.51,1.41,11.02,1.64,16.28.22,5.05-1.67,11.25-.06,16.39-1.06.19-1.7,1.23-2.61,1.59-3.68,1.45-13.55,4.53-17.22,4.64s-3.84-1.53-4.16-4.77c-.89-8.97-.01-18.96-.56-27.96-.17-2.83-2.67-4.12,1.36-5.9,1.92-.85,14.97-4.32,16.89-4.39.76-.03,1.76.1,2.31.69ZM194.22,28.4l-.56-2.8-6.15,1.96,6.71.84ZM182.48,28.97c-.92-.44-4.13.76-3.35,1.11l3.35-.56v-.55ZM191.43,47.41c-.74-7.47,4.85-18.9-7.77-13.92l.5,13.92c2.62-.66,4.65-.66,7.27,0ZM179.68,38.47v-1.11h-.55v1.11h.55ZM194.79,51.33c-1.17-1.18-13.15,1.93-15.1-.56l1.06,8.72-1.07.79c3.63-.73,11.35-1.73,14.21-3.97,1.56-1.22.74-3.21.9-4.98Z"/><path d="M58.28,39.31c.6,3.68,6.59-1.63,8.83,1.52l.69,16.09-7.02,1.08-.82,10.68c-1.86-.38-3.98-.42-4.35-2.64.1-4.25.71-8.48.46-12.76-.28-4.95-1.9-10.21-2.25-15.09-.15-2.06-.23-14.62.6-15.32.76-.63,3.87.46,3.87,1.34,0,4.24-.62,11.29,0,15.1Z"/><path d="M131.11,38.92c-.43-7.61,8.23-3.2,5.4,1.39-1.68,2.72-3.64-.76-5.4-1.39Z"/><circle cx="185.18" cy="55.89" r="2.16"/><path d="M96.36,177.48l.03-4.4c-4.91-2.76-10.82-1.99-16-2.63-11.71-1.45-23.41-4-35.27-3.94v5.18l37.23,3.23c1.36,4.11-2.93,5.4-2.24,8.39-11.72-.69-23.44-1.57-34.99-3.8v4.52c3.73.75,7.52,1.5,11.28,2,2.01.27,7.6-.33,8.88,1.19.43.51,1.65,4.55,2.42,5.97,3.37,6.18,7.92,11.78,10.82,18.26,8.42,23.21,19.8,45.08,28.42,68.22l6.41,2.12c0-1.16,1.48-1.9,1.48-2.52-.02-2.54-1.92-9.68-2.67-12.52-5.65-21.4-14.28-40.74-18.48-63.18-1.16-6.21-1.24-15.97-4.01-21.72-.97-2.01-4.07-1.26-2.86-5.81l9.54,1.43ZM86.54,188.92c4.74,25.03,11.76,49.56,19.28,73.84l-6.87-16.34c-8.01-14.06-11.69-29.61-19.32-43.88-.87-1.63-9.14-14.7-8.49-15.28,2.39.41,14.46.29,15.39,1.67Z"/><path d="M224.05,120.8c-6.76-3.97-14.87-6.7-21.81-10.64-1.66-.94-8.68-6.41-9.68-5.68-.08.06-.47,1.56-.43,1.87.25,1.87,4.23,4.21,5.84,5.29,8.18,5.49,18.01,8.94,26.2,14.08,1.07.67,11.59,8.09,13.42,10.15l.75-5.65c-1.16.42-12.54-8.37-14.3-9.4Z"/><path d="M45.11,156.22l50.08,7.54c-.87,4.16,2.45,13.12,7.07,13.4,5.87.36,18.6-3.32,25.18-4.38,4.91-.79,9.94-1.07,14.86-1.93,7.27-1.27,14.37-3.44,21.71-4.3l-.54,20.44-1.74,22.37c.64,5.16,11.02,4.9,6.19-.3,2.44.34,2.86-.86,3.62-2.82,5.61-14.38,7.69-30.03,13.13-44.48l42.8-6.41c2.41.29,2.78,5.62,3.64,7.59.6,1.35,1.34,2.67,2.4,3.47l1.05-7.86-1.61-4.62.86-.3,1.02,2.91,1.33-9.99c-3.84.94-7.71,1.77-11.61,2.51-1.21.23-2.64-.06-3.66.25-1.24.37-1.13,1.85-1.92,2.13-6.86,2.42-15.22,2.37-22.23,3.37-25.26,3.61-50.12,9.55-75.36,13.58-3.13.5-18.25,4.17-19.94,3.11l-.64-4.4c.98.04,1.95.04,2.92-.15,43.7-8.41,87.65-15.7,131.15-25.52.88-.16,1.52-.13,1.98.02l.67-5.06-32.66,6.1c-2.24-2.88,12.94-5.83,13.29-8.19.07-.46-.59-1.18-.42-1.32l3.91,1.11.53-4.44-28.69-12.19c-1.53.72-3.19,1.17-4.68,1.97-3.53,1.89-7.17,6.14-11.35,5.71-.04.95-.05,1.9.26,2.82,1.6,4.76,19.5,10.57,24.19,13.83.49.34,1.03-.09.73,1.24l-107.41,20.14c.92-6.26-3.61-4.8-8.1-5.61-.78-.14-1.65.54-1.41-.81.33-.66,6.2-3.93,7.31-4.44,2.69-1.23,7.15-2.75,10.13-3.86,1.37-.51,4.89-.4,4.74-2.9-.1-1.63-9.01-9.16-10.44-11.19-.1-.21,1.3-.74,1.51-.75.77-.05,5.42,5.27,6.59,6.07,5.8,3.94,12.36,6.87,17.91,11.74,1.45,1.28,2,4.38,4.74,3.07,4.31-2.06,10.53-3.04,15.55-4.04,6.39-1.27,19.38-4.43,25.2-4.5,2.73-.03,6.2,3.15,4.58-3.76l-27.41-20.41c9.23-1.32,18.17-4.08,27.3-5.99,5.6-1.18,11.51-1.02,16.86-3.84.6-.32,2.18-1.82,1.72-2.47-3.64-2.48-6.53.41-10.15,1.3-4.95,1.23-10.14,1.67-15.13,2.78-7.06,1.56-13.99,3.71-21.15,4.86l-1.32-36.56-.74-1.49c-6.99-.15-13.77,1.82-20.68,2.75-8.65,1.17-16.62,2.54-25.17,3.92-2.01.32-5.66-.72-6.67,1.76-.41,1,3.26,6.89,2.95,8.8,2.22,9.23-.09,21.09,1.94,29.94.31,1.34,1.91,2.17,1.57,3.74l-52.33,11.75v3.31c3.33.15,17.9-4.5,21.54-5.28,3.69-.79,7.54-.96,11.21-1.93l-11.15,5.38c1.46,5.82,6,1.04,9.48.22.02,1.12-1.68,1.8-1.87,2.38-.42,1.27.66,2.37-.66,3.21-2.32-.33-6.63-4.54-8.69-3.11-1.8,1.25.53,3.79,1.98,4.23l11.47,5.02-33.3-5.34v5.08ZM231.71,152.01h1.11v.55h-1.11v-.55ZM179.12,163.2l-9.13,33.1-2.61,4.93c.32-5.11.33-10.26.56-15.37.21-4.64.45-9.27.56-13.98.06-2.6,1.67-4.06-1.12-6.43l11.75-2.24ZM184.16,128.51c-.74-1.01,5.2-4.33,6.13-4.68.69-.26,1.57.48,2.27-.05l-.02-1.4,4.48.56c.24,1.28-.08.89-.72,1.24-1.36.76-7.51,2.5-7.98,3.2l-.28,1.94,1.14,1.45-5.03-2.24ZM201.98,130.35c-1.14,4.22-6.33-.5-8.86-.72l6.12-3.1c.51-.09,1.81.67,2.1,1.03.61.76.91,1.83.65,2.78ZM202.62,136.91c-.26-2.45,4.04-2.75,4.42-4.3-.16-1.99-2.09-3.06-1.07-5.21l9.51,3.36c-3.5,3.06-8.75,3.96-12.86,6.15ZM139.96,146.97c-4.13-.13-7.95,1.24-11.96,2.08l-23.02-16.62c-.49-.67.61-1.07,1.14-1.14,3.75-.54,6.93,5.47,9.42,7.65,1.31,1.15,11.64,6.77,13,6.91,2,.2,6.31-1.87,8.97-2.16.75-.08,3.49-.57,3.56.48l-1.56.81.45,1.99ZM135.5,120.4l-25.17,5.87c-2.48-10.03-3.17-20.35-2.74-30.67l1.92-.61.47,1.05c3.32-1.14,7.17-.21,10.67-.52,4.31-.39,9.28-2.39,13.72-2.79v20.97c0,1.16,2.45,5.7,1.13,6.71ZM158.7,136.35c.33.88,6.07,4.97,5.31,5.59-2.82-.42-17.04,4.04-18.46,3.11-.31-.2-1.21-1.91-1.12-1.98,2.18-.12,10.11-1.36,10.09-4.2,0-.37-3.45-5.57-3.93-6.15-1.78-2.13-4.74-3.31-6.15-5.87l14.27,9.5ZM145.55,134.95c.57.73.7,1.84,1.4,2.54.51,1.63-3.81.99-4.97,1.16-3.31.49-7.66,1.83-10.76,2.15-5.88.6-14.01-7.16-17.56-11.45l22.37-5.31c.26,4.71,6.92,7.6,9.51,10.91ZM141.66,123.23l.82-.87.27,2.79-1.09-.87v-1.06ZM139.97,110.06h.55v1.11h-.55v-1.11ZM122.24,90.36c1.68-.84,1.72-2.65,2.11-3.18.25-.34,7.22-.51,8.55-.68,1.46-.19,5.45-1.73,6.26-.51l.24,2.83c-.17.23-1.03-.87-1.52-1-3.8-.98-12.99,2.96-17.36,3.65l-3.49.14,5.21-1.24ZM100.37,90.62l12.6-1.65,2.93,2.64c-3.26.77-9.18-2.7-9.52,2.25-1.55-1.14-3.83-.3-4.35,1.51-.54,1.87-.29,10.85-.11,13.3.39,5.16,1.47,9.7,1.72,15.14.06,1.21,3.05,4.76-.61,5.28-1.95-9.26-2.21-18.8-2.81-28.23-.22-3.42-1.9-6.63.14-10.23ZM96.96,143.13l3.19-.55.93,1.61c.54,1.7-3.04.23-4.19,1.1l.07-2.17ZM95.76,138.03c0,2.2-2.22,2.23-2.23,0h2.23ZM84.23,152.51c-.81.35-1.52.77-2.45.62,1.1-1.72,3.72-2.32,5.59-2.79-.42.84-2.3,1.8-3.14,2.17ZM80.59,147.21c3.15-2.25,8.06-3.1,11.81-4.14-3.31,3.31-8.94,3.02-12.86,5.59-.33-1.44.39-.98,1.05-1.45Z"/></svg>