<?xml version="1.0" encoding="UTF-8"?><svg id="Layer_1" xmlns="http://www.w3.org/2000/svg" viewBox="0 0 283.46 283.46"><path d="M169.27,103.67c.14-1.08-1.39-.58-2.14-.61-8.15-.34-16.25,1.02-24.39,1.21-1,1.33-1.87,2.61-3.2,3.67-2.68,2.14-9.5,5.68-11.3,7.7-.31.35-.86.49-.62,1.16,10.06,10.7,12.68,27.82,14.07,42.01h-.6s-.01-3.67-.01-3.67c-1.05-.15-.65,1.45-.6,2.13.13,1.73.95,3.42.61,5.22l1.21-3.06-.6,5.52,1.22-.62-.6,3.07,1.22-.62v6.13c1.3,1.21,7.86-6.49,9.19-7.66,9.09-8.07,23.93-21.51,34.31-26.96,3.71-1.95,7.61-2.72,10.97-4.88-4.43-8.73-10.43-13.65-18.36-18.96-3.02-2.02-6.95-2.06-6.02-7.04,1.46-.19,2.84-.95,4.38-.55,1.19.31,9.3,5.83,10.83,6.98,7.25,5.48,14.15,13.66,15.37,22.91-1.66-.11-2.7,1.23-4.14,1.69-3.84,1.25-7.91,1.18-11.43,3.89-2.22,1.71-.42,6.57-.36,9.13l1.22-.62c.28,4.06,1.21,10.39,2.75,14.13,3.45,8.41,4.4,16.77,5.73,26.1,2.1,14.78,2.44,30.06,4.45,44.57.37,2.67,2.9,6.75,2.88,9.38,0,1.17-1.46,1.55-1.72,2.95-.48,2.65,1.35,6.5,1.3,9.18-.04,1.88-1.15,2.82-1.33,4.55-3.8.33-3.49-2.52-4.06-5.37-2.99-14.98-.97-34.3-4.64-48.67-.69-2.69-1.17-3.76-1.82-6.7-1.69-7.64-4.2-15.16-5.31-22.93-.75-5.26-.53-11.04-1.45-16.31-.82-4.63-3.15-9.23-3.81-13.96l-1.55-.3c-7.17,6.54-15.63,12.41-22.68,18.99-2.43,2.27-13.14,14.81-14.88,14.88-4.35.17-3.13-5.63-3.55-8.07-.73-4.18-2.13-8.29-2.83-12.49-1.89-11.35-2.48-23.99-7.6-34.68-2.27-4.75-5.72-5.72-8.79-9.51-4.87,2.17-9.13,4.64-13.1,8.19.85,1.54,2.93,6.17,5.04,5.75.64-.13,8.1-10.12,9.57-8.49.31,2.41-1.24,4.26-2.45,6.12l1.54.63,1.2-1.23.82,1.02c2.7,12.79,1.36,27.02,4.57,39.54,2.32,9.03,8.1,14.64,12.17,22.75.56,1.12,1.85,1.33,1.76,3.1-.18,3.43-9.22,13.42-11.95,16.3-8.17,8.62-18,15.47-26.07,24.18-2.04,2.21-8.35,9.23-9.34,11.53-1.23,2.87,1.53,3.3,1.39,5.95l-2.97.72c-1.35,9.62.66,19.55,1.04,29.23l-3.3,1.22c-2.24-.2-1.44-13.32-1.49-15.56-.1-4.52-.15-7.61,0-12.2.23-7.22-7.85-24.33-11.04-31.9-4.26-10.09-9.41-22.6-14.39-32.17s-11.77-17.29-19.11-25.4l1.03-2.95,14.69-16.07c-.22-.73-1.24.27-1.87,0-1.09-.48-4.18-7.71-5.22-9.44-1.46-2.42-5.76-6.46-5.18-8.81.31-1.27,11.41-7.46,13.35-8.82,4.49-3.15,8.88-7.72,14.18-10.08-.9-3.44.55-6.52.71-9.99.39-8.67.07-18.08-.64-26.69l1.22.63.33-1.89c6.41,1.08,12.85.64,19.28.03l-4.31-2.73c-2.27-2.15-4.75-5.9-3.58-9.14.38-1.04,1.72-.71,2.41-1.42,1.82-1.86,4.11-6.38,6.37-8.78,1.95-2.07,6.67-6.45,8.9-8.25,3.08-2.5,7-3.84,9.75-6.8,1.84-5.49,1.85-11.68,3.72-17.11,1.58-4.6,5.01-8.84,6.29-13.62l.69-.26c6.41-1.62,13.13-1.15,19.72-1.14,1.57,0,3.1.64,4.85.67,5.12.08,16.38-2.55,19.36,2.7s-5.58,18.98-6.77,24.84c5.33.94,12.61,3.57,17.39,6.22.62.34.77,1.3,1.16,1.56.59.39,1.68.16,2.6.76,7.88,5.17,7.47,19.34,2.63,26.58-.79,1.19-6.15,7.91-6.9,8.42-1.34.92-4.09-.36-4.01.87.02.26,3.05,2.95,3.65,3.69,1.27,1.59,2.04,3.15,3.1,4.75.63.96,1.79-.25.6,2.89,2.63-2.11,4.06-5.09,7.51-6.27,1.95-.67,7.29.01,9.36.73,3.25,1.12,5.64,5.32,8.29,6.48.93.41,2.72-.58,3.01.6.63,2.62-2.95,2.36-4.46,2.01-2.94-.68-6.02-4.84-8.26-5.83-6.28-2.78-9.25.58-14.85,2.3l2.46,7.34c.9.07.39-.81,1.36-1.41,5.66-3.46,5.58-1.6,10.66-1.06,3.24.34,5.63-.51,9.24,1.12,1.88.85,3.19,3.11,4.31,3.82,2.18,1.37,5.64,2.15,7.54,3.94,1.54,1.45,1.8,3.46,3.02,4.94,2.83,3.42,10.09,6.38,11.5,11.78.24.91,1.48,9.07,1.39,9.63-.21,1.25-2.95,4.64-3.44,7.05-.3,1.48-1.51,9.04-1.52,10.13,0,1.04,1.52,10.47,1.81,11.1.8,1.74,1.91,1.21,3.13,2.39l-2.13,2.14c-.85,0-3.86-2.27-4.27-3.1-.69-1.4-1.48-8.22-1.55-10.09-.44-11.71,8.78-23.98-2.43-34.34-1.9-1.76-4.2-2.32-6.16-4.87-1.21-1.58-1.48-3.56-3.09-4.88-.54-.45-10.64-6.87-11.27-7.12-2.28-.9-4.38-.31-6.63-.72-1.81-.33-4.31-1.75-5.69-1.74-2.01.02-3.12,2.81-5.81,1.9l2.5,8.79c-1.48,1.14-3.94,2.51-5.82,2.24-.94-.14-1.68-1.05-3.08-1.26-2.69-.39-8.36.05-11.65,0-3.17-.05-6.35.1-9.52.02v-.61s9.8,0,9.8,0ZM159.47,25.86c2.45-3.12,6.4-11.85,6.72-15.7.46-5.54-11.12-2.61-15.02-2.66-2.9-.04-16.23-2.25-17.79-.05.17,7.46-3.41,14.76-7.61,20.85,6.15-.81,12.39-1.56,18.51-2.62,3.31-.57,9.95-2.8,12.44-2.93.8-.04,2-.09,2.48.62l.28,2.49ZM123.92,22.18l3.07-9.18-2.47,4.57c.08,1.01-1.94,4.04-.6,4.62ZM159.46,27.09l-3.62.68c-.44,2.8,2.04,2.47,1.79,4.83l1.83-5.51ZM158.88,35.62l-.33-1.79c-3.94,5.47-8.19,8.52-14.69,10.43-9.28,2.74-11.78.87-20.4-1.08-2.28-.51-4.56-.27-6.82-1.71l-1.11.17c-6.95,3.68-12.2,9.31-17.65,14.85l-5.18,6.41c1.76,2.78,4.84,4.6,7.94,5.54,4.78,1.45,20.18-1.31,25.74-2.44,18.96-3.85,34.9-16.23,51.46-25.44l-.35-1.25c-6.1-2.22-12.04-3.97-18.62-3.69ZM146.6,37.51c-1.07.02-2.19-.19-3.24.12-.41.12-3.34,1.86-2.88,2.93,2.05-.49,4.92-1.19,6.12-3.05ZM139.85,41.18v-1.22s-2.44.62-2.44.62v.6s2.44,0,2.44,0ZM179.68,43.64h-1.22v.6h1.22v-.6ZM172.33,47.31h-1.22v.6h1.22v-.6ZM180.91,54.65l-.62-2.45-2.44,2.15,3.06.3ZM163.11,58.92l-.28-1.2c-.74.79-1.78,1.28-1.53,2.44l1.81-1.25ZM161.17,66.46c-1.92.53-5.31.05-6.82.54-1.27.42-3.39,6.33-6.22,1.13l-.31,2.45-3.68.61c6.27.37,12.41-.37,18.58-1.33l.89-.79-.48-2.17-1.55.55-.41-.99ZM138.63,67.53l-3.67.61,1.22.61-1.22,2.44h7.96c-.65-2.58-4.84.04-5.51-.61l1.22-3.05ZM177.84,68.74l-1.53-1.25-1.53.95,3.06.3ZM130.06,71.2l-.3-1.83-11.96,2.43,12.26-.61ZM113.51,72.43c-10.66,1.86-21.66,4.36-32.47,3.05-.36,9.97-3.06,20.04-1.14,29.94l12.17.69-5.71-1.93c-4.25-3.21-5.63-5.25-5.92-10.66-.41-7.51,4.72-12.52,11.38-14.94l-.35-1.83c4.15-.97,8.86-1.87,12.7.43,2.09,1.25,7.61,8.44,5.68,11.17l1.21-1.22c1.29,9.03-7.52,19.05-16.53,19-.14,1.07,1.39.57,2.14.61,5.33.24,9.74-1.08,14.95-1.15l.67,4.22-14.09.62c.66,2.06,3.5,11.21,5.29,11.55,3.12.58,14.94-9.49,18.58-10.66s3.64,1.65,4.01,1.56l9.5-6.13c.14-1.14-1.23-.45-1.86-.33-4.1.75-8.49,3.57-12.55,3.47-.75-.02-5.07-1.39-5.26-1.66-.52-.73-2-7.85-2.22-9.3-.94-6.37-.69-12.46-.75-18.85-.03-2.7-1.67-4.95.59-7.63ZM171.72,76.1c-1.36-1.64-.41-3.58-3.37-3.73-12.36,1.95-24.95,1.7-37.37,2.51-4.35.29-8.78,2.29-13.17.6-.04.76-.56,1.43-.58,2.19-.27,8.73-1.02,14.63,1.48,23.56.35,1.24,1.41,4.39,2.56,4.79,6.12.32,12.17-2.17,18.29-2.95,9.74-1.24,19.74-.96,29.4-1.86,4.79-.44,9.28-2.93,14.4-1.22-1.4-5.06-1.52-10.52-4.05-15.24-1.9-3.55-5.19-5.77-7.59-8.65-1.98,5.84-4.34,2.37-7.62,2.43-12.15.21-27.96,4.46-40.57,5.45-1.51.12-3.49-.21-4.5-1.44l1.85-.31-.63-1.22c3.01-.09,5.99-.8,8.96-1.15,5.83-.68,11.95-.67,17.69-1.31,3.78-.42,22.98-4.48,24.82-2.44ZM95.74,100.6c3.9.43,8.67-5.62,9.15-8.92s-2.36-10.49-5.99-10.97c-.55-.07-4.17.23-4.33.38-.2.19.12,1.26-.17,1.59-.26.3-5.19,1.88-6.96,3.8-4.07,4.44-1.39,12.92.33,11.05-.18-1.84-1.9-2.45-1.87-4.59.03-3.07,2.07-5.33,4.82-6.24,4.43-1.47,7.96.55,9.33,4.99,1.22,3.93-.33,3.11-.45,3.53-.26.95.74,1.58-.79,3.26-1.05,1.14-2.62.97-3.08,2.12ZM90.38,89.73c-4.02,4.15,4.79,10.52,8.11,4.77.08-2.06-2.45-7.08-4.79-6.64-.19.04-3.19,1.73-3.32,1.87ZM92.67,100c-.11-.12-2.53-1.26-3.06-1.23.51,1.29,1.69,2.06,3.06,1.83-.03-.2.08-.51,0-.6ZM98.8,104.29h-1.83v.6h1.83v-.6ZM82.26,110.42l-3.68-.61c.41,1.03.84,1.73-.28,2.45l-24.83,17.46c4,3.97,6.55,9.2,8.6,14.37l2.15-.56,22.5-21.66c1.1-2.73-3.18-8.53-5.68-9.63l1.22-1.82ZM96.97,111.02l-13.48-.61c1.49,1.71,3.5,1.85,5.17,3.71,1.66,1.85,6.66,13.36,7.44,13.48l5.16-3.42c-3.55-3.04-5.26-8.45-4.28-13.17ZM90.83,125.12c-1.84-.25-2.29,1.98-3.27,2.85-9.77,8.67-20.73,17.86-29.59,27.39-2.71,2.92-4.76,6.43-7.55,9.28,10.49,10.62,17.35,21.87,23.37,35.42.88,1.97,1.14,4.29,1.91,6.05,4.35,9.95,9.13,19.74,12.99,29.91,1.71-.04,1.96-24.26,2.15-26.65,1.1-13.98,3.16-30.13,6.53-43.72,1.21-4.9,6.39-14.71,6.4-18.78.01-5.77-12.29-14.87-12.93-21.75ZM109.22,131.86c-3.02,1.43-2.93-2.59-4.61-4.3l-5.78,3.44c1.88,4.15,5.5,6.99,8.25,10.64l3.98-7.65-2.44-.93.61-1.2ZM93.3,239.08c8.3-11.7,20.6-19.66,30.33-30.01,2.69-2.86,11.54-13.07,11.83-16.4.3-3.42-6.61-11.75-8.39-15.24-5.69-11.1-5.05-20.53-6.21-32.39-.51-5.22-1.53-10.39-1.84-15.63-.76.05-1,.87-1.34,1.41-16.05,25.5-23.8,62.59-25.03,92.61-.21,5.1-.18,10.66.64,15.65ZM188.87,141.05h-1.22v.6h1.22v-.6ZM190.09,168.62v-1.22h-.6v1.22h.6ZM189.48,179.64l-1.21-9.8v3.97s1.21,5.82,1.21,5.82ZM190.09,182.71v-1.83h-.6v1.83h.6ZM95.73,186.38v-1.83h-.6v1.83h.6ZM190.71,187v-2.44h-.6v2.44h.6ZM95.12,188.83v-1.83h-.6v1.83h.6ZM94.51,191.9v-2.44h-.6v2.44h.6ZM93.9,196.19v-3.06h-.6v3.06h.6ZM93.28,201.7v-4.28h-.6v4.28h.6ZM92.06,212.73l.61-8.57-.61,2.14v6.44ZM91.45,214.57v7.96s.62,0,.62,0v-7.96s-.62,0-.62,0ZM92.06,224.98v-1.22h-.6v1.22h.6ZM91.44,229.27l.61-3.67c-1.57.49-1.24,2.36-1.21,3.67h.6Z"/><path d="M166.81,274.62c-.98-.17-2.38-.34-3.09-1.05-.37-.36-4.4-8.13-4.81-9.12-4.98-12.01-8.21-32.82-9.79-45.97-.75-6.27-.17-12.76-1.93-18.87l2.16-1.58c2.12,6.39,1.39,13.26,2.17,19.88,1.31,11.15,5.21,38.71,11.48,47.34,2.43,3.35,6.78,2.9,3.81,9.37Z"/><path d="M200.43,74.58l.08,4.2c-3.35-3.19-8.7-.23-10.75-4.94-2.99-.49-3.91,7.21-7,2.8l7.66-5.2c1.59,4.19,6.77,1.34,10.02,3.14Z"/><path d="M126.99,198.25l-5.42-1.57c-1.18-2.82-2.9-5.42-4.06-8.24-.68-1.65-3.57-9.59-3.41-10.69.11-.74.38-1.13.97-1.55,3.13.96,3.95,2.33,5.51,4.9,3.19,5.27,5.24,11.13,6.42,17.16Z"/><path d="M101.15,218.57c.26.42.26,3.71.01,4.1-2.21,1.19-4.32.58-6.6.04-.69-2.97,1.07-4.08,2.69-6.03.6.75,3.72,1.58,3.9,1.88Z"/><path d="M102.48,211.73c-2.78.23-4.97.15-7.08-1.82l1.86-4.3c1.95,2.12,5.86,2.51,5.21,6.11Z"/><path d="M104.32,201.31c-2.91.6-4.77-1.13-7.35-1.86l.61-3.66c2.93.13,6.35,2.33,6.73,5.51Z"/><path d="M174.17,80.01c.14,1.61.07,1.01-.93,1.19-4.39.81-8.97.67-13.39,1.33-10.29,1.54-21.6,5.26-31.95,4.88-1.06-.04-2.05,0-2.75-.98,9.41-2.32,19.55-4.45,29.18-5.73,3.25-.43,18.15-2.42,19.83-.69Z"/><path d="M95.71,89.84l.03,3.64-5.26-.56c-1.07-4.03,2.19-4.09,5.23-3.08Z"/></svg>