<?xml version="1.0" encoding="UTF-8"?><svg id="Layer_1" xmlns="http://www.w3.org/2000/svg" viewBox="0 0 283.46 283.46"><path d="M177.61,125.4c5.41,5.64,2.23,15.22-4.76,17.53l1.24.62c-4.01,3.46-.42,6.84-.11,10.81-1.24.07-2.56,1.65-3.4,1.79-3.23.55-9.05-.16-12.33.16-7.08.68-16.21,3.53-23.04,2.47-2.82-.44-5.2-2.89-4.76-5.79.09-.61,1.68-.64,2.22-1.65,1.43-2.65-.12-7.12,3.12-9.37,2.9-2.02,18.85.64,23.37-1.22-3.76-4.72-5.53-6.61-1.77-12.03,4.33-6.24,14.38-9.4,20.23-3.3ZM174.1,135.14c.14-2.46.23-4.9-1.87-6.57l-3.73.35,2.49,1.86-5.6.64c1.26,1.96,4.88.56,7.1,1.78l1.62,1.95ZM167.87,135.77c-1.42-.26-.99.08-1.39.79-1.32,2.39-1.17,6.46-2.32,8.77-.49.98-2.42-.42-1.89,1.64l4.95-.66.65-10.55ZM142.33,146.98h-3.11s0,1.24,0,1.24l3.11-.63v-.61Z"/><path d="M91.07,58.09c1.91,2.37,1.13,8.21-1.01,10.15-3.31,2.99-7.65.18-11.41.79-4.47-1.25-2.99-14.4-4.25-18.15,2.39-1.82,6.31-4.83,9.4-3.91,5.71,1.7,2.93,5.98,4.04,8.43.61,1.36,2.63,1.94,3.24,2.7ZM86.21,61.09l-6.17-.68.63,3.74,5.6-.63-.06-2.43Z"/><path d="M90.16,98.24c-.77-.75-.65-3.32-2.64-2.95-.58.43.57,9.95-4.96,5.26-1.81-1.53-3.61-10.82-1.49-11.45.88-.26,1.97.52,2.74.24.55-.2.88-1.39,2.16-1.54,1.37-.16,3.35,1.17,4.38,1.02.9-.13,2.06-2.57,4.39-2.87,1.77-.23,4.31.56,5.52,1.89.37.41,4.62,7.94,4.68,8.42.39,2.77-1.21,4.26-3.68,3.08-1.76-.84-4.1-6.52-4.71-6.54-2.51.89-1.2,5.31-2.14,5.94s-3.47.26-4.25-.5Z"/><path d="M126,55.92c-.5.86-4.82,2.42-3.6,5.73,2.26.77,9.77-6.81,10.52-3.37-.62,5.17-5.61,10.66-11.15,9.34-6.5-1.55-5.36-10.75-1.56-14.69,4.02-4.17,7.46.11,5.79,2.99Z"/><path d="M108.75,51.01l5.14,1.25c3.13,4.04-3.58,5.35-3.89,5.71-.76.88,1.97,6.82-.4,7.42-3.73.94-3.61-4.87-4.46-6.69-.37-.8-1.19-.81-1.42-1.21-1.55-2.7.37-3.24.66-5.46.37-2.88-3.34-14.14,1.85-12.54,2.97.92,1.93,8.65,2.53,11.52Z"/><path d="M142.34,52.94c.23.23,2.84-1.52,4.96.33,4.07,3.57-1.08,11.38-6.45,10.84-11.15-1.11-5.63-18.13.51-13.63,1.22.89.87,2.34.98,2.45ZM141.7,55.43h-1.23s-.63,2.49-.63,2.49l1.78-.7.08-1.78Z"/><path d="M141.71,90.3c2.77,1.22,11.72-.94,11.12,3.28-.53,3.74-8.47,3.27-11.29,2.8-8.23-1.39-7.99-11.44-.89-14.07,3.99,1.65,3.86,5.15,1.05,7.98Z"/><path d="M134.15,97.7l-2.95.65-4.76-8.06-1.57.37-.05,7.06c-4.27,1.84-5.59-3.36-6.01-6.64-1.02-7.99,2.65-3.96,3.49-4.56.41-.29.3-2.27,2.28-2.47,4.54-.46,10.95,9.23,9.55,13.64Z"/><path d="M171.49,60.89c-1.85,1.96-5.55-2.79-6.42-4.21l-1.29,2.43-3.73-1.15c-.71-2.15.03-8.19,2.24-9.1,3.24-1.33,12.18,8.88,9.2,12.03Z"/><path d="M149.95,48.73c1.52-1.78,4.58.43,5.19,2.3.34,1.05,1.63,9.37,1.22,9.97l-1.56,1.03c-3.68.98-6.17-11.76-4.85-13.31Z"/><path d="M116.08,98.94c-4.92,3.11-9.95-14.61-3.04-11.43,1.9.87,4.76,10.35,3.04,11.43Z"/><path d="M100.51,56.14c-.68,3.54,3.39,8.6-.84,10.53-3.17.01-6.04-10.19-2.36-11.16l3.2.63Z"/><path d="M151.14,41.19c7.82-1.86,4.25,8.88.51,4.62-1.04-1.18-1.32-3.25-.51-4.62Z"/><path d="M110.96,76.03c.96-.31,3.15.34,3.65,1.18,1.52,10.21-8.05.22-3.65-1.18Z"/><path d="M96.58,50.1c-2.92-3.43.74-5.46,3.72-2.8-.21,3.22-.65,6.4-3.72,2.8Z"/><path d="M206.52,39.58c.38-10.84-1.31-21.91-2.24-32.7-4.28-7.3-11.62-3.92-18.01-3.74-7.99.23-14.24-.73-21.84-1.26-9.32-.65-18.73,1.72-28,1.88-16.26.28-32.25,1.26-48.52,2.57-10.29.83-20.57,2.07-30.86,2.9v3.9c1.34.34,1.07,2.32,1.78,3.41,1.7,2.61,6.21,1,8.99,2.09,40.41-3.12,80.92-3.5,121.2-8.01,1.99,11.66,2.18,23.93,1.92,35.81-.29,13.53-1.27,26.88-1.3,40.48-.05,20.98-1.23,40.13.58,61.07.29,3.36,1.99,15.31.73,17.41-.36.6-10.29,7.31-11.45,7.86-.56.27-.84.73-1.67.5,1.42-2.88-.16-2.81-.36-3.27-.18-.41.12-1.03-.22-1.4-1.37-1.47-14.19-8.44-15.84-8.25-.52.06-8.25,4.29-9.3,4.95-2.86,1.81-4.56,4.22-7.62,5.46l-.29,6.25c-2.81-1.01-5.85,1.48-8.75-.36-.83-4.44,3.96-5.87.4-10.28-3.91-1.64-12.87-9.96-16.39-10.42-2.37-.31-12.13,4.31-14.49,5.82-.83.53-1.01,1.76-1.41,2-.6.36-1.68.05-2.32.46-1.16.74-1.29,5.13-1.88,6.56l-7.79-2.48c-1.49-2.49,1.97-9.77.64-12.47-.7-1.4-10.77-7.51-12.6-9.23-1.38-.41-2.32,0-3.51.6-4.31,2.2-9.11,7.19-13.39,9.82v23.13c6.6,2.83,15.24.87,21.38-2.52l1.29,1.89c2.33-1.61,5.13.05,5.29-3.75l7.32,1.99c.84,6.04,8.23,7.35,11.97,10.14,1.17.88,1.5,2.55,2.88,3.35,3.42,1.97,9.85-1.07,13.7-1.73,5.02-.86,9,1.96,8.35-5.66l8.71-.63,1.07,5.64,19.09,7.94c5.34-3.27,11.73-3.53,17.79-4.29l-.47-13.55,10.49-5.7c.23,2.99.21,6.03,0,9.03-.97,13.87-2.13,27.21-1.9,41.13.04,2.48,1.75,2.96-1.08,4.29l1.74,5.96c-11.31.22-22.66-.28-33.97-.02-23.11.52-46.67,2.56-69.72,2.49-3.01,0-19.34.38-23.46-.74v5.86c9.45,2.01,19.39,2.01,29.07,1.79,32.63-.74,65.71-3.21,98.4-2.56,4.14.08,8.47,1.21,12.76.68-1.15,1.81-2.26,3.78-3.48,5.54-7.68,11.05-17.1,20.42-26.01,30.35-1.83,2.04-3.15,1.88-2.77,4.39h7.19c3.3-4.22,8.91-8.51,12.61-12.76,6.04-6.94,10.86-14.92,16.82-21.92-.34,6.59-.38,12.91-.09,19.47-2.52,5.58-6.9,10.1-9.97,15.22h8.64l6.57-12.73c7.5-3.19,14.98-2.31,22.89-2.02l-9.29,14.75h8.54l4.17-6.66c.71,2.23-.78,4.51-.07,6.66h6.87c-1.73-4.05.6-8.53.92-12.68.03-.43-.06-3.64-.13-3.82-.31-.74-5.25-4.12-6.41-4.43-2.87-.79-14.72-1.36-17.98-1.32-1.68.02-8.74,2.22-9.06,1.89l.51-23.86c-2.61-3.75-6.86-4.21-11.1-2.92.48-1.47.65-3.07.64-4.63-.17-19.79-1.71-42.86-.04-62.34.56-6.58,5.07-6.88,8.23-12.33,1.99-3.44,3.68-12.35,4.56-13.5.64-.84,3.78-.93,5.13-1.72,2.38-1.4,5.15-9.72,3.01-12-5.01-5.34-4.96,7.58-8.05,6.84-1.25-1.3-2.17-2-4.08-1.87l-1.08-4.98c-4.84-2.14-5.26,3.51-4.44,7.08.47,2.04,3.68,4.81,3.6,6.91-.1,2.82-3.88,10.32-6.22,12.22.27-2.44-.54-4.73-.66-7.13-1.17-22.86,0-50.39.62-73.55.31-11.44,2.16-22.96,2.55-34.19ZM122.1,9.92l-7.18.04,8.41-1.23h8.4s-9.63,1.2-9.63,1.2ZM71.93,176.86h-4.98s0-14.94,0-14.94l2.49,1.86-1.24.62,4.39.39-.67,12.07ZM71.95,159.12c2.21-1.51,4.7-5.05,7.46-4.05l-1.24-1.23c2.27-1.21,3.63,1.47,4.98,3.1-3.88-.21-8.3,6.15-11.2,2.19ZM78.79,173.75l.63-4.35,3.73,2.5-4.36,1.85ZM85.02,165.03l-3.8-.95-2.42,2.19c-1.23-2.19,5.95-4.66,6.22-4.35v3.11ZM111.18,182.47c-1.07-.51-2.29-.76-3.32-1.34-6.43-3.64-2.56-5.25-2.27-11.11l6.78,4.15-1.18,8.3ZM111.82,166.59c5.7-4.01,10.34-3.96,14.94,1.55-6.25.18-10,4.39-14.94-1.55ZM128,184.33h-1.86v-.61h1.86v.61ZM129.17,176.78c-3.15-.8-9.13,1.56-6.8,5.25.83,1.32,3.56,1.03,3.14,2.93l-8.72,1.24,1.83-9.69,11.25-2.13-.71,2.4ZM159.77,188.7l-9.36-2.78c-1.74-1.3.31-6.45.02-8.42,3.19.75,3.94,3.12,5.91,5.01.49.47,1.62.41,2.01.76.6.53,1.81,5,1.41,5.44ZM158.57,177.23l-5.02-3.49c-1.08-1.53,7.21-5.46,8.47-5.59,2.83-.29,3.87,2.13,6.48,2.49.46.6-8.51,6.76-9.93,6.58ZM165.41,189.3l-1.27-8.07c1.38.33.9,2.69,1.58,3.71,2.36,3.56,7.51-1.63,10.25-2.46v4.98s-10.56,1.84-10.56,1.84ZM196.52,141.37h-.61v-2.48h.61v2.48ZM197.15,212.36h-.63s0-6.84,0-6.84h.63s0,6.84,0,6.84ZM198.31,58.15c-1.11,19.03-1.46,38.46-1.83,57.37-.15,7.54.5,15.2-.26,22.74-.93-4.43-1-8.89-.96-13.42.29-31.13,2.7-62.85,1.87-93.99-.21-7.78.65-14.75-1.85-22.44l1.83-.28c.25.16,1.2,5.04,1.28,5.89,1.62,15.68.83,28.72-.07,44.13Z"/><path d="M55.29,11.9c.53,29.65,1.16,59.3,1.9,88.94.73,29.37,1.58,58.74,2.44,88.11.49,16.57.97,33.14,1.46,49.71.09,3.21,5.09,3.22,5,0-.86-29.5-1.74-58.99-2.58-88.49s-1.59-58.87-2.23-88.31c-.36-16.66-.69-33.31-.99-49.97-.06-3.21-5.06-3.22-5,0h0Z"/><path d="M59.19,241.3c1.42,3.52-1.6,7.57-3.25,10.52-1.96,3.52-4.06,6.97-6.27,10.33-4.48,6.81-9.47,13.27-14.91,19.34-2.14,2.39,1.38,5.94,3.54,3.54,5.92-6.6,11.35-13.66,16.18-21.1,2.36-3.63,4.58-7.35,6.65-11.15s4.67-8.39,2.88-12.81c-.51-1.25-1.67-2.13-3.08-1.75-1.19.33-2.26,1.82-1.75,3.08h0Z"/></svg>