<?xml version="1.0" encoding="UTF-8"?><svg id="Layer_1" xmlns="http://www.w3.org/2000/svg" viewBox="0 0 283.46 283.46"><path d="M173.18,21.79c.23.17.23,1.15.53,1.59.28.41,2.08.5-.34,2.34-1.36,1.03-11.09,7.07-12.32,7.49-1.45.5-3.13.17-4.52-.5-.6-1.26-.15-1.97.81-2.76,1.62-1.33,10.85-6.96,12.73-7.67.78-.29,2.44-1,3.12-.5Z"/><path d="M167.76,3.31c-.4,2.15-2.76,2.72-4.73,2.98-5.59.74-11.11.34-16.67-.49-.57-5.81,7.79-2.76,11.72-2.97,1.86-.1,6.46-1.59,7.69-.77.69.46.55,2.1,1.99,1.25Z"/><path d="M198.28,50.25c1.31-1.86,4.44-1.55,4.22,1.46-.2,2.67-2.54,12.95-6.1,12.36-3.05-.51.03-5.71.5-7.48.4-1.51.7-5.36,1.39-6.33Z"/><path d="M223.97,53.14c-.33,1.26.95,1.32,1.07,2.15.2,1.43.08,6.76-.03,8.47-.26,4.39-3.74,5.92-4.48,2-.29-1.55-.2-11.26.6-12.07l2.83-.56Z"/><path d="M176.68,31.22c.11.08.96,2.29.94,2.62-.17,2.14-4.7,4.51-6.65,2.85-1.8-2.51,4.79-6.14,5.72-5.47Z"/><path d="M166.66,12.88c.34.21.54,1.82,2.1,1.38-.63,2.4-6.47,4.97-7.72,2.49-1.35-2.67,4.44-4.62,5.63-3.87Z"/><path d="M193.15,46.62l-.53,1.21,1.02.51c-.77,2.87-4.29,7.35-6.38,3.1,1.04-2.4,2.87-5.38,5.89-4.82Z"/><path d="M212.93,57.45c-.43.74-2.52,1.31-3.3.54-.35-2.93-.19-6.57,3.19-7.32.55.05,1.19,2.09,1.17,2.68,0,.21-.96,3.91-1.06,4.1Z"/><path d="M188.24,192.54l4.83.02c2.69,4.84,2.75,10.42.65,15.53,4.44,4.35,7.51,9.27,9.01,15.38,6.66,27.12-22.36,47.03-44.54,54.27-3.8,1.24-8.73,2.77-12.01,2.83-.63,1.88-1.56.58-3.05.53-1.57-.05-3.15.03-4.72,0v.49c.29.13,3.4-.12,1.23.53-4.69-2.13-9.99-.31-14.93-.5-16.77-.66-47.51-8.73-58.72-21.91-12.68-14.91-10.35-31.11-1.3-47.18l-.17-1.09c-3.28-1.54-2.29-13.16.06-13.88.67-.21,4.09-.41,4.78-.09,2.98,1.4,2.85,8.95,6.59,8.93,1.08,0,3.99-1.98,5.46-2.47,8.85-2.98,18.17-4.5,27.29-6.44.84-.43.77-4.12,1.41-5.17.61-.99,5.36-1.76,6.3-1.21,1.09.64,3.29,6.85,6.75,6.75,1.19-.03,1.28-1.29,1.66-1.37,3.45-.7,11.14-1.32,14.85-1.51,4.53-.24,9.12.77,13.67.51,1.06-1.08-4.63-8.84,4.12-6.36,3.84,1.09,6.39,7.73,8.16,8.75,1.11.65,7.49,1.52,9.72,2.22,1.52.48,4.16,2.38,5.55,2.23.39-.04,5-3.2,5.31-3.6.94-1.2,1.69-5.94,2.04-6.17ZM189.16,203.43c-.31-.35-6.01,4.49-8.22,4.43-1.42-.04-4.79-2.37-6.43-2.96-4.25-1.52-9.38-1.96-13.69-3.73-1.18-.77-1.05-2.95-1.02-4.21-1.09.28-.72,2.1-1.27,2.95-1.64,2.55-2.75.37-3.93.25-6.84-.7-16.9.69-23.92,1.27-2.04.17-5.16-.32-6.97.12-.25.06-.21.87-.53.91-1.05.14-3.19-1.33-4.36-1.59l-4.3-3.41c-.51,2.26.79,3.38,1.52,5.27l-1.32,1.72c-1.28-.29-3.58-1.75-4.72-1.77-4.77-.09-21.55,4.41-26.6,6.21-1.42.51-5.25,2.87-6.04,2.92s-2.02-1.6-3.64-.42l.99-.99c-1.96.71-3.57-.43-5-1.72-.7-.63-.68-1.68-1.46-1.77-.64.88,2.56,5.88,0,4.47,1.09,7.17-5.61,14.23-6.42,21.21-2.72,23.33,14.64,32.54,33.9,38.16,20.68,6.03,44.75,8.75,65.34,1.38,19.08-6.83,47.26-30.51,35.28-53.25-.69-1.32-5.41-7.97-6.31-8.89-.6-.62-1.98.18-2.27-.92-1.45-2.55,1.13-3.31,1.39-5.65Z"/><path d="M137.42,251.22l-.5-1.28c-4.88.57-5.06-7.72-7.04-11.1l-7.62-.59-4.78,16.94-1.22.02-.54-1.05-1.7.54-.09-1.41-1.34-.12c-.7-.68,2.81-10.49,3.28-12.3,1.17-4.56,1.91-9.23,3.16-13.77.71-2.56,1.94-7.29,2.87-9.54.99-2.4,3.36.04,4.83.79,4.99,9.74,7.83,20.64,11.94,30.83l-1.24,2.04ZM127.95,233.29l-2.98-7.46-2,7.46h4.98Z"/><path d="M143.3,213.49c2.38,3.18,4.79,6.35,6.96,9.68.7,1.08,1.19,4.02,2.13,1.95.82-1.82,3.27-10.25,4.41-11.01.71-.47,2.1-.26,2.96-.19l.99,4.18c-4.78,10.98-6.43,23.24-12.64,33.59-1.38-1.3-3.78-.92-4.22-3.19,2.49-5.49,4.88-11.05,6.25-16.95l-10.01-15.15c-.94-3.41.63-2.83,3.18-2.9Z"/><path d="M100.58,252.71c-1.71-.02-4.37-.39-4.9-2.35-.62-2.29,3.72-13,3.42-16.29-1.9-4.4-7.16-10.1-8.59-14.34-.35-1.04-.96-3.36.43-3.81.59-.15,1.14-.02,1.7.17,1.84.61,6.45,9.06,7.44,11.24,1.21.16.79,0,1.04-.69,1.24-3.4,1.79-7.11,2.56-10.63,6.78-2.03,4.37,6.95,3.52,10.74-1.95,8.69-5.47,17.07-6.64,25.97Z"/><path d="M211.57,179.3c.77-4.43-.48-9.51-.53-13.93-.05-4.11.24-8.14.53-12.22,2.77,2.42,3.71,1.45,5.49-1.2-1.49-2.85-3.81-4.99-5.7-7.8-3.37-5.01-5.43-10.83-8.64-15.75-1.38-2.11-4-5.57-6.87-3.66-.94.62-2.36,4.31-3.19,3.52-2.3-5.79-3.78-11.87-9.01-15.64-5.65-4.07-7.06-2.12-13.09-2.84-9.64-1.14-11.98-16.45-16.73-22.84,2.32-.3,5.53.41,7.71,0,.38-.07,3.01-1.72,3.23-1.5,2.59,9.22,14.78,14.94,23.7,15.87,5.29.55,10.47-.52,15.47,2.45,3.41,2.03,5.25,5.83,7.85,8.57,4.41,4.66,9.07,8.69,14.48,12.14v-6.11c-2.11-1.33-4.4-3.06-6.09-4.72-4.78-4.69-8.2-11.01-14.27-14.34-9.1-5-19.55-.89-28.86-6.48-1.34-.8-5.75-4.25-6.52-5.43-2.98-4.6-1.07-4.17.8-7.58,3.79-6.9,4.83-17.39,1.89-24.73,3.08.38,3.94-2.47,5.97-4.24,2.55-2.22,5.56-3.96,7.75-6.72l-.8-2.96c-1.05-.17-1.8-.08-2.74.45-.97.55-7.29,6.34-8.43,7.5-.99,1-1.68,2.35-2.49,3.48-3.35-7.01-12.34-15.42-20.39-15.94-3.87-.25-8.6.63-12.23,1.79-1.51-2.88-3.22-5.66-5.26-8.2-14.98-18.68-43.69-10.68-55.55,7.55-3.1,4.77-4.97,8.89-3.43,14.72-7.3,2.95-11.9,16.12-10.86,23.2.74,5.08,3.62,6.04,7.44,8.59.97,5.62-1.33,8.17-4.98,11.85l-8.44,6.32v9.19s0-.04,0-.06c.1-.65.28-1.25.74-1.75,4.57-4.96,16.54-11.83,17.88-18.44.34-1.65.17-3.77.25-5.48,1.18.12,2.6-.21,3.72.01.88.17,3.08,3.29,3.66,4.3,2.85,4.97,4.18,11.61,3.51,17.29-.77,6.6-9.54,15.22-12.97,21.37-1.14,2.05-2.6,4.43-2.41,6.8l-3.26-6.44c-.53-1.24-3.16-2.35-4.23-1.74-.67.38-.73,1.34-1.1,1.58-.49.31-1.41.06-2.14.58-.97.69-1.46,3.51-3.14,4v7.08c.02-.07.04-.15.06-.19.17-.39,5.05-5.9,5.59-6.38.43-.38.56-.64,1.25-.48l8.47,16.42-15.1,1.95c-.1-.03-.19-.07-.27-.12v4.15h1.93c-.02.88-1.3.6-1.75,1.49-.21.41-.14.99-.18,1.42v3.91c.25.39.32,1,.95,1.38,4.17,2.51,9.55-.68,10.91-4.96l-2.46-4.23,5.97-.5v30.86s-1.99,0-1.99,0c.94-1.66-.42-2.31-.55-3.73l1.47-15.34c-.88-3.72-13.04,1.07-13.3,2.47,2.23,3.03-1.12,13.31,1.05,15.49,1.23,1.24,4.41.04,4.75-.95.11-.34-.5-5.68-.41-7.16.11-1.88.66-3.84.75-5.72l1.75-.48-1.03,12.18,1.53,3.74h-9.4v4.43l19.1-.48c42.48-1.17,85.1-6.06,127.92-3.97,2.52.12,5.93.31,8.38.58,2.09.24,4.2.76,6.26,1.22v-4.92l-10.92-1.35c-.34-1.56,1.23-.67,1.5-2.22ZM63.76,161.11c-.52-.68,1.1-2.71,1.73-2.48,1.97.71-1.62,2.63-1.73,2.48ZM83.39,81.94c-2.36.05-3.91,1.14-6.56.13-.72-.28-6.5-4.2-6.74-4.71-1.3-2.78.54-11.44,1.88-14.32,1.64-3.53,7.48-7.21,8.12-9.32.58-1.92-1.01-5.15-.02-8.47,1.17-3.92,9.51-13.72,13.1-15.77,8.86-5.05,26.68-7.55,34.78-.05,1.65,1.53,6.63,8.7,7.22,10.75.73,2.56-1.24,1.53,1.55,3.15.33.19,0,.98,1.37.79,1.65-.24,3.66-1.92,5.66-2.37,9.02-2.04,15.74.63,21.24,7.89,5.38,7.12,6.55,22.5.71,29.5-3.47,4.16-10.65,3.48-15.62,3.33-11.67-.34-22.99-1.75-34.84-1.54-10.58.19-21.21.79-31.85,1ZM90.59,154.93l1.76.73,3.75-3.01,2,31.86-17.92,1.49v-29.37c2.53,1.96,4.16,1.13,6.46-.78-4.02-5.74-9.43-10.25-11.94-17.14,4.05.51,4.04-3.93,5.56-6.64,5.55-9.86,14.53-15.12,13.86-27.99-.36-6.89-3.23-12.3-6.49-18.14l25.88-.5c.06.8-1.03.56-1.51,1.22-.91,1.23-3.22,7.48-3.42,9.03-.35,2.71.62,6.1,1.86,8.51,3.84,7.42,18.1,8.7,20.15,15.68,1.59,5.41-5.31,12.26-8.37,16.33-3.43-2.26-7.58-12.58-12.47-7.98-3.17,2.99-7.26,9.94-10.19,13.7-2.94,3.78-6.86,7.26-9.38,11.57l.39,1.43ZM113.02,154.65l-3.48.99c.06-2.22,2.12-1.41,3.48-.99ZM110.54,150.16v-.49h.99v.49h-.99ZM100.58,147.17l11.69-14.92,9.7,11.44-21.4,3.49ZM144.83,181.48l-21.85,1.03c-.07-.8,1.08-.62,1.54-1.2.92-1.16-.21-2.74-.34-4.11-.39-3.99-.15-9-.74-12.83-.3-1.98-1.81-3.23-3.79-3.12-2.87,1.36-5.97,1.03-8.52,2.95-.11,5.23-.05,10.78,1.16,15.8,1.22,1.87,3.09.92,4.6-.07l-.92-13.06,2.51-.79,1.11,14.09,2.38,2.84-19.91,1.49.49-5.71-2.01-14.91,1.02-.77-1.52-.28-.46-12.17c3.23.88,6.6-.78,9.95-.49-.39,1.1-2.85.36-3.53,1.31-.56.79-1.51,6.02-.93,6.84,1.52,2.15,8.27,1.02,10.54.27,2.29-.76,3.38-6.02,1.25-7.77-.83-.68-2.45-.38-2.85-1.63l10.45-1.5c-.66,8.82,1.08,17.43,1.99,26.14.31,2.95-1.36,7.66,2.79,7.74,1.26.03,1.33-1.06,2.73-1.32l-2.52-27.09,3.7,2.45c6.73-2.03,1.51-4.02-.97-6.93-2.52-2.96-4.32-6.54-7.2-9.22,4.24-4.66,11.71-12.66,10.81-19.29-.88-6.44-8.6-10.31-13.79-13.08-1.69-.9-5.44-1.92-6.5-2.96-1.13-1.11-2.48-5.91-2.47-7.5.02-2.33,3.61-8.97,2.76-10.21-.33-.48-1.42-.19-1.26-.97h16.42l-.99.49c.24,2.95-.32,6.32,0,9.21,1.04,9.32,5.78,9.93,9.72,16.16,4.58,7.26,3.69,16.88,10.05,23.16-3.1,6.59-8.81,12.92-9.82,20.17l4.48-1c-.68,5.42.87,10.93,1.02,16.16.11,3.93-.77,7.75-.56,11.68ZM149.45,144.04c2.18-4.19,5.59-8.7,8.11-12.78l9.7,14.42-18.35,1.93c-.9-1.51-.15-2.26.53-3.57ZM156.82,154.15c-.27.99-1.06,1.12-1.99.99.27-.99,1.06-1.12,1.99-.99ZM155.67,161.6c-.38.1-.33.42-.44.7-.87,2.26.12,12.16.82,14.77.95,3.54,2.33,3.54,4.75,1.12l-1.02-13.34,1.51-.24.5,16.43-12.19.5c1.26-9.86-1.26-19.52-.75-29.37,1.51-.25.79.38,1,1.21.82,3.19-1.15,7.05,3.71,6.77,1.22-.07,7.55-2.1,7.98-3,.96-2.85-.09-4.76-2.24-6.47l6.97-.5v10.95c-.8.02-.49-.92-1.33-1.42-2.34-1.39-6.5,2-9.27,1.9ZM166.77,180.52c.68-1.59-.94-2.11-.99-2.33-.55-2.33-.73-9.84-.53-12.37.12-1.58.63-2.74,1.02-4.21l.98,6.22.5,12.19h2.49s-3.48.49-3.48.49ZM183.18,152.39c.37,2.12,2.79,1.34,3.99.26l1,27.88h-17.42c-.38-1.76,1.82-1.93,1.98-3.76l-1.98-25.61,4.24,1.92,1.11-.27c.3-1.15,2.34-.92,2.1-1.89-.29-1.16-7.92-10.03-9.35-12.05-2.13-2.99-8.55-14.95-11.77-15.04-.68-.02-1.98.49-2.52.93l-2.71,5.49c-.28-1.95-1.84-3.5-2.51-5.21-2.7-6.93-2.19-13.78-7.94-19.94-1.27-1.36-3.26-2.3-4.22-3.74-2.75-4.13-1.79-10.7-2.27-15.4l15.43.5c-1.16,2.55.74,6.35,1.75,8.95,2.6,6.71,7.65,16.69,15.26,18.58,3.54.88,7.49-.27,10.95.99,6.36,2.32,7,14.75,12.11,18.76.6,1.34-7.96,14.61-7.25,18.66ZM198.37,131.25l6.71,13.44c-4.76-1.04-9.14.27-13.93,0,2.27-4.55,4.07-9.38,7.22-13.44ZM201.11,153.15l-3.48.99v-1.49s3.48.5,3.48.5ZM195.13,149.17c.06.96-1.24.23-2,.73-.51.33-.19,1.41-.98,1.25l.28-2h2.7ZM203.59,181.02c.57-3.03-.22-6.37.01-9.7.18-2.55,2.3-10.11,1.03-11.89-1.25-1.75-7.73-.23-8.95,1.51,1.77,5.19-.18,10.53,1.41,15.38l2.52.22c-.83,1.49-.05,3,.5,4.48h-7.96c-.02-1.16,1-1.39,1.03-2.71.02-.79-.51-1.68-.53-2.52l-.49-24.14c.73.09.83,2.15.93,2.8.29,1.93-.64,3.83,1.7,4.8,2.35.98,3.19-.91,4.81-1.4,1.72-.52,3.18.19,4.76-1.21,2.41-2.13.37-5.24-.76-7.47l3.2-.02c.5.07.35,1.69.31,2.26-.53,7.42-1.53,20.28-.55,27.39.18,1.29.95,1.58,1.02,2.71l-3.98-.5Z"/><path d="M172.54.76c-.07,9.42,3.97,18.33,10.15,25.31,6.56,7.42,15.55,12.25,24.95,15.07,5.56,1.66,11.31,2.62,17.08,3.18,1.35.13,2.5-1.24,2.5-2.5,0-1.46-1.15-2.37-2.5-2.5-17.5-1.71-36.13-8.58-44.2-25.41-1.97-4.1-3-8.6-2.97-13.14.02-3.22-4.98-3.22-5,0h0Z"/></svg>